<?xml version="1.0" standalone="no"?>
<!DOCTYPE svg PUBLIC "-//W3C//DTD SVG 20010904//EN"
 "http://www.w3.org/TR/2001/REC-SVG-20010904/DTD/svg10.dtd">
<svg version="1.0" xmlns="http://www.w3.org/2000/svg"
 width="820.000000pt" height="820.000000pt" viewBox="0 0 820.000000 820.000000"
 preserveAspectRatio="xMidYMid meet">

<g transform="translate(0.000000,820.000000) scale(0.100000,-0.100000)"
fill="#000000" stroke="none">
<path d="M50 8191 c0 -5 21 -21 46 -36 l46 -27 -33 -24 c-17 -13 -36 -21 -40
-18 -5 3 -14 2 -20 -1 -7 -5 -2 -16 12 -31 20 -21 21 -27 9 -49 -9 -18 -22
-25 -42 -25 l-29 0 1 -245 c1 -135 4 -245 8 -245 4 0 8 -14 9 -30 1 -17 -2
-30 -7 -30 -6 0 -10 -66 -10 -165 0 -147 7 -193 23 -152 4 9 6 9 6 -1 1 -7 -6
-15 -14 -18 -13 -5 -15 -103 -15 -798 l0 -792 34 -84 c19 -47 50 -103 69 -126
20 -22 43 -65 51 -95 23 -79 64 -143 153 -245 59 -66 93 -96 134 -116 41 -19
66 -40 94 -80 47 -65 115 -194 115 -219 0 -9 11 -30 24 -46 31 -37 48 -71 42
-82 -5 -8 2 -18 60 -86 52 -61 84 -108 84 -125 0 -10 16 -38 37 -62 20 -23 44
-61 54 -83 10 -22 31 -53 47 -69 17 -15 33 -43 36 -61 4 -18 15 -40 26 -50 11
-10 20 -24 20 -32 0 -7 4 -13 9 -13 5 0 11 -8 15 -17 7 -21 39 -64 119 -159
31 -37 56 -73 54 -79 -2 -5 -20 -9 -40 -8 -20 1 -37 -2 -37 -5 0 -13 104 -78
163 -103 31 -13 74 -39 95 -56 20 -18 48 -33 62 -33 14 0 41 -9 60 -20 19 -11
53 -29 75 -39 22 -10 51 -28 64 -40 13 -11 32 -21 41 -21 9 0 41 -18 71 -41
42 -31 59 -39 79 -34 14 4 44 9 66 12 40 5 43 3 89 -50 42 -50 50 -55 72 -46
37 14 38 11 9 -12 -25 -19 -26 -23 -11 -38 8 -10 12 -21 8 -25 -10 -11 133 2
176 16 18 6 50 7 70 3 20 -4 87 -9 149 -11 l112 -3 0 44 c0 24 -5 47 -11 51
-14 8 -3 50 23 87 l21 29 -56 116 c-80 168 -121 328 -121 478 l0 91 47 70 47
70 -20 58 c-11 32 -20 73 -20 92 0 27 -5 36 -27 45 -16 6 -39 12 -52 14 -31 4
-88 44 -99 69 -5 11 -18 40 -30 65 -22 44 -54 185 -45 194 4 4 11 92 15 191 2
33 -7 99 -20 155 -5 19 -5 42 -1 50 22 49 39 92 39 102 0 6 8 16 17 23 38 28
21 213 -24 266 -7 8 -13 21 -13 27 0 6 -7 17 -15 25 -22 23 -52 108 -80 235
-8 34 -17 67 -20 72 -3 6 -1 10 5 10 8 0 8 6 0 20 -13 24 -51 163 -56 205 -1
17 -9 82 -17 145 -24 201 -9 313 53 386 28 33 45 42 109 54 55 10 142 -17 221
-69 64 -42 344 -312 386 -372 28 -41 28 -41 78 -34 28 4 125 7 216 7 91 -1
189 2 218 6 l53 7 23 58 c24 58 71 141 159 277 127 199 201 260 316 260 80 0
131 -37 169 -124 56 -130 72 -425 33 -628 -19 -98 -20 -161 -6 -218 10 -37 7
-150 -5 -190 -13 -45 -13 -110 0 -110 6 0 10 -11 10 -25 0 -14 6 -28 14 -31 8
-3 12 -12 9 -19 -3 -9 5 -17 21 -21 14 -3 23 -10 20 -16 -3 -5 0 -15 6 -23 6
-8 13 -26 15 -41 1 -14 8 -30 15 -34 6 -4 11 -10 11 -13 -1 -16 36 -67 49 -67
10 0 11 -3 3 -11 -9 -9 -7 -18 8 -38 11 -15 21 -43 22 -63 1 -19 9 -43 16 -52
7 -9 9 -16 3 -16 -5 0 -8 -15 -7 -32 2 -18 4 -33 5 -33 1 0 3 -11 6 -25 2 -14
6 -37 9 -52 2 -16 1 -28 -4 -28 -4 0 -8 -12 -9 -27 0 -16 -12 -49 -27 -75 -20
-36 -25 -55 -20 -80 6 -30 4 -33 -19 -33 -14 0 -26 4 -26 10 0 5 -5 4 -12 -3
-9 -9 -16 -6 -30 16 l-18 27 -1 -25 c-1 -14 -1 -36 0 -50 0 -14 -2 -19 -5 -12
-11 24 -34 13 -34 -18 0 -31 -13 -39 -27 -17 -5 8 -9 2 -13 -18 -4 -23 -10
-30 -28 -30 -13 0 -29 -8 -36 -17 -7 -10 -16 -15 -19 -12 -3 4 -29 -16 -58
-42 -29 -27 -60 -56 -69 -64 -23 -21 -117 -70 -135 -70 -8 0 -15 -4 -15 -10 0
-5 -3 -9 -7 -9 -5 1 -10 0 -13 -1 -3 -1 -12 -3 -20 -5 -8 -2 -57 -15 -109 -29
-51 -14 -97 -23 -102 -20 -5 3 -17 1 -26 -5 -21 -10 -76 -20 -148 -26 -27 -2
-68 -7 -90 -10 -86 -14 -420 -5 -448 12 -6 3 -23 7 -39 8 -16 2 -46 15 -68 29
-22 14 -40 22 -40 18 0 -20 105 -106 163 -132 48 -22 56 -29 36 -30 -48 0
-184 40 -232 70 -56 35 -51 13 9 -40 46 -40 98 -63 200 -86 108 -26 444 -26
584 0 124 22 337 78 423 110 142 54 308 147 393 221 77 66 109 124 106 194
l-2 56 232 -3 c162 -2 236 -7 244 -15 16 -17 61 -151 79 -237 10 -46 22 -78
35 -88 16 -13 25 -44 39 -134 11 -64 22 -121 25 -127 3 -5 29 -12 57 -16 35
-5 61 -16 83 -36 27 -23 38 -27 62 -20 19 5 44 3 74 -7 74 -25 192 -86 198
-102 3 -8 16 -28 29 -43 13 -16 23 -34 23 -42 0 -17 89 -105 107 -105 7 0 13
-3 13 -7 0 -5 25 -24 55 -43 30 -19 55 -41 55 -47 0 -7 4 -13 10 -13 5 0 7 -7
4 -15 -4 -8 -1 -15 6 -15 6 0 9 -4 5 -9 -3 -5 6 -18 20 -29 14 -11 25 -24 25
-30 0 -5 15 -17 33 -26 61 -31 122 -82 125 -105 2 -15 14 -26 34 -33 25 -9 48
-40 52 -70 3 -24 62 -69 107 -83 106 -31 144 -16 178 70 59 153 60 155 152
247 50 50 106 116 126 147 19 31 48 70 65 87 20 22 37 58 54 114 13 46 37 103
53 129 16 25 41 87 56 136 15 50 49 131 75 180 26 50 53 108 59 130 7 22 20
58 31 80 53 112 92 207 110 266 11 36 38 93 60 128 22 34 40 70 40 80 0 20 67
128 92 149 9 7 20 32 24 55 4 29 20 56 49 89 23 26 68 95 100 153 32 58 61
105 64 105 4 0 24 15 44 34 29 27 37 41 37 69 0 38 35 145 80 242 15 33 42 91
59 130 18 38 41 79 52 91 11 11 37 71 59 133 21 62 43 118 49 124 5 7 30 64
56 129 42 104 52 122 102 167 50 46 55 54 49 82 -3 19 2 53 14 89 19 57 20 87
20 780 l0 720 -3260 0 -3260 0 -6 -26 c-4 -14 -2 -30 5 -37 17 -17 13 -27 -9
-27 -15 0 -20 -7 -20 -27 0 -14 3 -23 8 -19 4 4 7 13 7 19 0 7 12 13 28 15 29
4 37 -12 13 -25 -12 -7 -10 -16 15 -52 21 -32 29 -56 29 -88 0 -41 -3 -45 -47
-73 -54 -34 -75 -70 -43 -70 15 0 20 -7 20 -25 0 -28 -24 -35 -34 -9 -10 26
-39 0 -41 -37 -1 -19 -6 -50 -10 -69 -5 -28 -3 -40 13 -58 14 -16 21 -19 25
-10 4 11 7 11 18 0 12 -11 11 -16 -6 -30 -12 -9 -27 -29 -35 -44 -7 -16 -17
-28 -21 -28 -4 0 -7 -24 -7 -53 1 -30 -2 -59 -6 -66 -6 -9 -2 -12 10 -10 23 4
44 -8 44 -25 0 -7 -11 -26 -25 -42 -14 -16 -23 -35 -20 -41 2 -7 -5 -19 -16
-26 -17 -12 -18 -15 -4 -20 26 -11 19 -71 -13 -105 l-28 -30 40 -23 c57 -31
136 -89 136 -100 0 -5 -19 4 -42 20 -147 97 -154 100 -190 89 -19 -6 -45 -19
-59 -30 l-24 -19 24 12 24 12 -21 -28 c-12 -15 -22 -35 -22 -44 0 -17 -39 -57
-41 -43 -1 4 -4 -9 -8 -28 -6 -37 -9 -38 -78 -24 -18 3 -33 10 -33 15 0 5 -6
9 -13 9 -8 0 -22 9 -32 20 -9 10 -25 19 -34 18 -32 -2 -51 2 -51 13 0 6 -10
20 -22 31 -16 13 -19 21 -11 24 18 8 -24 48 -67 65 -37 14 -131 99 -110 99 10
0 10 3 0 15 -10 12 -16 13 -28 3 -13 -11 -15 -10 -9 5 18 47 19 68 6 66 -23
-5 -59 11 -59 26 0 8 -7 11 -19 8 -10 -3 -22 0 -25 6 -4 6 -15 11 -24 11 -12
0 -13 -3 -4 -12 18 -18 15 -28 -9 -28 -15 0 -19 5 -14 19 13 41 -24 73 -52 46
-14 -14 -14 -18 2 -34 16 -18 15 -19 -13 -26 -17 -3 -33 -13 -36 -21 -6 -16
-42 -19 -51 -4 -12 19 -39 10 -65 -22 -23 -27 -34 -33 -70 -33 -30 0 -46 6
-56 20 -13 17 -11 22 13 47 14 15 36 31 47 34 11 4 33 16 49 27 23 18 32 20
57 10 17 -6 30 -7 30 -2 0 5 7 9 15 9 8 0 15 9 15 20 0 16 -7 20 -35 20 -25 0
-39 6 -50 24 -13 20 -23 23 -66 22 -57 -2 -63 2 -43 29 8 10 14 13 14 7 0 -15
26 -16 35 -2 11 18 -14 39 -45 38 -19 -1 -30 -7 -34 -21 -2 -10 -8 -17 -13
-15 -4 2 -27 13 -51 24 -36 16 -42 22 -37 42 3 13 1 30 -6 38 -12 14 -3 19 27
15 6 -1 19 10 28 24 9 14 25 25 36 25 29 0 33 16 14 55 -16 35 -16 37 3 64 18
24 19 30 7 52 -7 13 -11 31 -8 41 3 9 1 19 -4 22 -4 2 -8 24 -7 47 1 29 -5 49
-17 61 -10 10 -18 27 -18 39 0 16 -4 19 -20 14 -24 -8 -116 25 -100 35 7 4 3
13 -10 25 -18 16 -20 16 -26 1 -10 -26 -24 -18 -24 13 0 37 12 45 75 45 41 1
50 4 49 18 -2 18 42 32 82 27 23 -3 54 10 54 22 0 16 -117 11 -123 -5 -6 -15
-31 -16 -44 -1 -4 4 -2 5 6 0 9 -5 12 -4 7 3 -9 14 -196 17 -196 3z m2515
-151 c0 -29 -32 -41 -41 -16 -9 24 4 48 23 44 12 -2 18 -12 18 -28z m-765 -40
c0 -13 -7 -20 -20 -20 -23 0 -26 10 -8 28 18 18 28 15 28 -8z m2287 -16 c9
-23 -11 -38 -26 -20 -13 16 -7 36 10 36 5 0 12 -7 16 -16z m219 -91 c-5 -5
-11 -2 -13 5 -3 6 -9 10 -14 7 -5 -4 -6 1 -3 10 6 15 8 15 22 1 9 -9 12 -19 8
-23z m3604 -67 c72 -44 103 -74 96 -92 -3 -7 -2 -14 2 -14 10 0 33 -38 37 -62
5 -22 -22 -94 -31 -85 -3 3 2 19 10 36 12 22 13 37 6 55 -5 14 -13 26 -16 26
-4 0 -5 -3 -1 -6 3 -3 1 -11 -4 -18 -5 -6 -16 -20 -25 -31 -13 -18 -13 -18 -2
8 10 23 9 30 -5 44 -17 17 -18 17 -87 -22 -33 -19 -47 -85 -18 -85 48 0 74 40
46 68 -9 9 -7 12 10 12 16 0 22 -6 22 -21 0 -11 6 -30 12 -42 13 -24 18 -118
6 -110 -5 2 -8 13 -8 23 0 36 -11 52 -27 39 -11 -10 -13 -9 -11 2 2 9 -7 15
-27 16 -52 3 -67 9 -81 34 -10 18 -13 20 -14 7 0 -9 4 -19 8 -22 4 -2 7 -28 6
-56 -1 -28 3 -53 9 -57 6 -3 7 -1 3 5 -13 21 0 13 25 -15 22 -25 22 -26 2 -9
-13 11 -23 14 -23 8 0 -6 5 -14 10 -17 6 -3 10 -11 10 -17 0 -6 -18 10 -41 36
-38 42 -44 46 -88 46 -26 0 -56 7 -67 15 -17 13 -16 14 13 4 18 -6 38 -9 45
-6 9 4 7 6 -3 6 -9 1 -19 7 -22 15 -4 10 -15 13 -31 10 -46 -8 -32 11 63 88
11 10 21 29 21 43 0 39 24 88 65 134 21 23 40 41 44 41 4 0 31 -15 61 -34z
m-5057 -1 c1 -5 -6 -11 -15 -13 -11 -2 -18 3 -18 13 0 17 30 18 33 0z m217
-75 c0 -5 -5 -10 -11 -10 -5 0 -7 5 -4 10 3 6 8 10 11 10 2 0 4 -4 4 -10z
m5017 -86 c-3 -3 -12 -4 -19 -1 -8 3 -5 6 6 6 11 1 17 -2 13 -5z m-1757 -30
c0 -8 -6 -14 -14 -14 -9 0 -12 7 -9 20 6 22 23 18 23 -6z m1788 -5 c-3 -8 -7
-3 -11 10 -4 17 -3 21 5 13 5 -5 8 -16 6 -23z m-18 -34 c-7 -8 -17 -15 -23
-15 -6 0 -2 7 9 15 25 19 30 19 14 0z m-1803 -39 c291 -63 540 -260 691 -547
53 -99 78 -168 97 -259 l11 -55 49 -3 c88 -7 165 -61 165 -117 0 -8 -9 -19
-20 -25 -17 -9 -20 -8 -20 9 0 11 5 21 12 23 7 3 3 15 -12 36 -32 44 -46 41
-42 -8 2 -22 0 -40 -4 -40 -5 1 -34 23 -64 50 -30 28 -58 50 -61 50 -13 0 -27
-79 -28 -151 0 -79 -16 -139 -58 -222 -13 -27 -22 -52 -18 -55 3 -4 10 0 14 7
5 8 14 10 21 6 7 -4 16 -2 21 6 6 10 9 11 9 2 0 -7 -9 -22 -20 -33 -11 -11
-20 -23 -20 -27 0 -22 -35 -113 -56 -145 -13 -21 -24 -40 -24 -44 0 -11 -42
-65 -47 -60 -3 3 -17 -1 -32 -8 -14 -7 -34 -11 -43 -9 -10 3 -18 1 -18 -4 0
-5 -17 -9 -37 -10 -21 -1 -55 -9 -75 -18 -37 -15 -54 -5 -22 13 13 7 9 12 -20
26 -20 9 -34 22 -30 27 7 11 -39 3 -73 -13 -17 -8 -27 -6 -51 11 -20 14 -33
18 -37 11 -9 -15 -38 9 -31 26 2 6 -5 14 -16 17 -24 7 -15 27 13 27 11 0 17
-4 14 -10 -11 -17 32 -11 46 7 10 11 10 14 2 9 -7 -4 -13 -3 -13 3 0 12 34 53
81 100 20 20 39 49 43 64 7 28 9 29 61 25 32 -2 55 1 55 7 1 6 6 0 13 -13 13
-22 14 -22 30 -4 22 24 21 32 -4 32 -20 0 -20 0 3 30 13 16 30 28 39 26 10 -2
23 9 34 28 25 41 125 169 142 179 7 4 13 16 13 26 0 10 7 24 16 32 18 15 14
87 -6 99 -8 5 -13 32 -14 69 0 33 -2 61 -4 61 -1 0 -7 -10 -12 -22 -9 -19 -9
-17 -5 12 3 19 7 62 9 95 4 59 4 59 -9 25 -10 -27 -14 -30 -14 -13 -1 21 -21
44 -21 24 0 -6 -5 -11 -11 -11 -6 0 -9 7 -6 15 4 8 2 17 -3 20 -6 4 -9 34 -7
68 2 37 -2 75 -10 95 -7 17 -10 32 -6 32 5 0 1 6 -8 13 -9 7 -17 17 -19 22 -3
14 -70 87 -70 78 0 -5 -5 -1 -10 7 -5 8 -13 15 -17 15 -4 1 -26 7 -48 15 -45
16 -69 14 -100 -6 -11 -7 -39 -16 -60 -19 -22 -2 -41 -9 -43 -15 -2 -5 -11
-10 -21 -10 -9 0 -25 -13 -34 -30 -11 -17 -27 -31 -40 -32 -12 0 -28 -2 -36
-2 -20 -2 -24 -21 -7 -35 9 -8 16 -8 20 -2 9 14 36 2 36 -15 0 -17 -17 -18
-23 -1 -4 9 -6 9 -6 0 -1 -6 4 -15 9 -18 6 -3 10 -11 10 -16 0 -6 -5 -7 -10
-4 -6 4 -24 3 -42 0 -17 -4 -26 -10 -20 -14 16 -10 1 -27 -31 -35 -20 -5 -27
-11 -23 -21 3 -9 0 -15 -9 -15 -8 0 -20 -8 -27 -17 -7 -10 -25 -24 -40 -32
-33 -17 -42 -51 -23 -87 23 -44 19 -52 -27 -59 -52 -9 -99 -42 -122 -87 -31
-62 -44 -79 -124 -160 -26 -27 -44 -48 -39 -48 4 0 -1 -8 -10 -18 -45 -47 -66
-78 -75 -108 -5 -19 -14 -33 -21 -31 -7 1 -13 -10 -15 -25 -3 -25 -32 -42 -32
-19 0 5 -12 8 -27 6 -16 -2 -35 -4 -43 -4 -13 -1 -13 -2 0 -12 11 -8 12 -12 2
-16 -21 -8 -2 -23 30 -23 44 0 93 -34 117 -81 12 -23 16 -37 9 -33 -8 5 -8 1
2 -10 12 -16 12 -19 -3 -27 -10 -6 -17 -23 -18 -42 -1 -33 -3 -30 -13 15 -8
33 -53 88 -73 88 -11 0 -7 -7 11 -21 14 -11 24 -24 21 -29 -3 -5 -1 -11 5 -15
9 -6 7 -12 -18 -62 -7 -13 -12 -28 -12 -35 0 -22 -43 -58 -70 -58 -15 0 -44
11 -64 25 -20 14 -44 25 -53 25 -12 0 -14 7 -8 33 3 17 8 51 9 75 2 40 2 41
-16 26 -18 -17 -82 -16 -148 2 -21 6 -23 4 -12 -7 6 -7 12 -16 12 -19 0 -9
-53 -5 -69 4 -14 9 3 -25 28 -56 20 -25 -2 -52 -30 -37 -11 5 -24 7 -30 3 -6
-3 -22 5 -36 17 l-26 24 13 -25 c7 -14 27 -43 44 -65 17 -21 25 -35 17 -30
-10 6 -13 4 -9 -6 13 -34 19 -59 14 -59 -2 0 -25 30 -49 68 -68 103 -124 241
-152 374 -8 37 -22 76 -31 87 -11 12 -18 41 -20 82 -1 35 -10 84 -18 108 -20
54 -20 105 -2 134 7 12 16 55 19 95 10 122 61 192 80 110 13 -53 44 -58 64
-10 31 76 149 239 234 323 105 104 276 215 391 253 169 57 341 68 505 32z
m-1134 -72 c9 -10 -4 -34 -18 -34 -17 0 -28 17 -20 30 7 11 28 13 38 4z m2807
-73 c0 -6 -4 -13 -10 -16 -5 -3 -10 -18 -11 -33 l-1 -27 -13 30 c-7 16 -11 35
-8 42 6 15 43 18 43 4z m-2728 -73 c-9 -9 -12 -7 -12 12 0 19 3 21 12 12 9 -9
9 -15 0 -24z m-2982 2 c0 -5 -7 -10 -15 -10 -8 0 -15 5 -15 10 0 6 7 10 15 10
8 0 15 -4 15 -10z m1376 -26 c9 -34 -15 -59 -49 -50 -51 12 -40 76 13 76 24 0
31 -5 36 -26z m1557 -45 c-17 -17 -37 -1 -22 17 8 10 15 12 23 4 7 -7 7 -13
-1 -21z m-1953 -18 c0 -11 -5 -23 -11 -27 -15 -9 -33 12 -26 30 9 23 37 20 37
-3z m-3150 -1 c0 -5 -5 -10 -11 -10 -5 0 -7 5 -4 10 3 6 8 10 11 10 2 0 4 -4
4 -10z m6600 6 c0 -3 -4 -8 -10 -11 -5 -3 -10 -1 -10 4 0 6 5 11 10 11 6 0 10
-2 10 -4z m-5840 -115 c0 -6 -4 -13 -10 -16 -5 -3 -10 1 -10 9 0 9 5 16 10 16
6 0 10 -4 10 -9z m4040 -41 c0 -5 -5 -12 -11 -16 -14 -8 -33 11 -25 25 7 11
36 4 36 -9z m-4077 -28 c-12 -12 -20 -14 -25 -8 -4 6 0 14 10 18 29 11 33 9
15 -10z m5704 -5 c4 -5 1 -7 -7 -5 -8 2 -14 -3 -12 -10 1 -8 -2 -11 -9 -6 -7
4 -9 0 -5 -14 11 -34 -33 -37 -61 -4 -26 31 -30 44 -9 36 8 -3 16 -2 19 3 7
10 73 10 84 0z m-4952 -7 c3 -5 2 -10 -4 -10 -5 0 -13 5 -16 10 -3 6 -2 10 4
10 5 0 13 -4 16 -10z m-785 -10 c0 -5 -4 -10 -10 -10 -5 0 -10 5 -10 10 0 6 5
10 10 10 6 0 10 -4 10 -10z m5593 -16 c12 -12 -6 -34 -27 -34 -31 0 -39 11
-18 26 19 15 35 17 45 8z m232 -15 c11 -16 1 -19 -13 -3 -7 8 -8 14 -3 14 5 0
13 -5 16 -11z m-6343 -21 c-6 -6 -15 -8 -19 -4 -4 4 -1 11 7 16 19 12 27 3 12
-12z m6337 -30 c0 -13 -3 -17 -6 -10 -8 20 -22 14 -16 -8 4 -15 0 -20 -15 -20
-11 0 -22 -8 -25 -20 -6 -23 11 -27 19 -5 4 8 11 15 17 15 5 0 2 -9 -8 -20
-11 -12 -25 -18 -36 -15 -11 4 -23 -2 -33 -17 -9 -12 -16 -18 -16 -13 0 6 -5
3 -10 -5 -6 -9 -10 -10 -10 -3 0 7 8 17 18 22 16 10 16 10 -1 11 -12 0 -16 4
-10 13 12 19 12 37 1 37 -6 0 -8 -7 -4 -15 6 -16 -9 -21 -19 -6 -6 10 16 36
37 44 10 4 9 8 -2 17 -13 10 -13 11 1 7 9 -3 22 -1 30 4 8 5 31 9 52 9 32 0
37 -3 36 -22z m-2323 -9 c10 -17 -23 -46 -37 -32 -7 7 -9 19 -6 27 7 18 33 21
43 5z m338 -5 c3 -9 3 -20 0 -25 -9 -15 -34 10 -27 27 7 19 19 18 27 -2z
m-3764 -20 c0 -22 -16 -17 -17 6 -1 11 2 18 8 15 5 -4 9 -13 9 -21z m5573 6
c-3 -12 -8 -19 -11 -16 -5 6 5 36 12 36 2 0 2 -9 -1 -20z m-5733 0 c0 -5 -5
-10 -11 -10 -5 0 -7 5 -4 10 3 6 8 10 11 10 2 0 4 -4 4 -10z m253 -5 c7 -18
-9 -29 -30 -21 -12 5 -13 9 -3 21 16 19 26 19 33 0z m5286 -77 c0 -10 -2 -10
-6 0 -2 6 -9 10 -14 6 -5 -3 -9 4 -9 16 0 19 2 20 15 6 8 -8 15 -21 14 -28z
m-4049 0 c0 -4 -7 -8 -15 -8 -8 0 -15 4 -15 8 0 5 7 9 15 9 8 0 15 -4 15 -9z
m-1450 -12 c0 -3 -4 -8 -10 -11 -5 -3 -10 -1 -10 4 0 6 5 11 10 11 6 0 10 -2
10 -4z m5713 -16 c3 6 4 5 3 -2 -1 -6 -18 -13 -37 -15 -32 -3 -33 -2 -15 12
14 10 23 12 32 4 8 -7 14 -6 17 1z m-1811 -18 c-7 -2 -10 -8 -6 -13 3 -5 0 -9
-5 -9 -12 0 -15 23 -5 33 4 4 12 4 17 0 8 -5 7 -8 -1 -11z m-4128 -32 c139
-21 267 -118 320 -245 33 -80 46 -211 27 -281 -14 -52 -62 -124 -126 -188 -67
-69 -161 -101 -285 -100 -91 1 -185 29 -185 55 -1 24 -17 43 -25 29 -9 -14
-80 26 -80 45 0 8 -9 16 -19 20 -25 8 -79 92 -97 151 -43 142 18 329 138 427
56 45 95 64 165 81 72 18 82 18 167 6z m7330 -26 c7 -19 -10 -44 -30 -44 -15
0 -28 35 -19 50 10 16 42 12 49 -6z m-924 -34 c0 -5 -2 -10 -4 -10 -3 0 -8 5
-11 10 -3 6 -1 10 4 10 6 0 11 -4 11 -10z m-5582 -34 c2 -10 -1 -23 -7 -29
-15 -15 -46 16 -37 38 8 21 40 15 44 -9z m5432 -216 c0 -5 -5 -10 -11 -10 -5
0 -7 5 -4 10 3 6 8 10 11 10 2 0 4 -4 4 -10z m-215 -140 c-10 -11 -23 -20 -28
-20 -6 0 -2 9 8 20 10 11 23 20 28 20 6 0 2 -9 -8 -20z m-525 -210 c0 -5 -7
-7 -15 -4 -8 4 -15 8 -15 10 0 2 7 4 15 4 8 0 15 -4 15 -10z m-739 -97 c13
-16 12 -17 -3 -4 -10 7 -18 15 -18 17 0 8 8 3 21 -13z m2374 -3 c4 -6 1 -9 -7
-8 -7 2 -12 -3 -10 -9 1 -7 -2 -13 -8 -13 -12 0 -12 3 -4 24 7 18 20 21 29 6z
m-794 -153 l-23 -22 17 28 c10 15 20 25 23 22 3 -3 -5 -16 -17 -28z m-1661
-48 c0 -5 -8 -9 -17 -8 -11 0 -13 3 -5 6 6 2 9 10 6 15 -4 7 -2 8 4 4 7 -4 12
-11 12 -17z m1604 -21 c-3 -4 -9 -8 -15 -8 -5 0 -9 4 -9 8 0 5 7 9 15 9 8 0
12 -4 9 -9z m-2474 -40 c0 -7 -5 -20 -10 -28 -12 -19 -35 2 -27 24 7 19 37 21
37 4z m710 -98 c0 -5 -5 -10 -11 -10 -5 0 -7 5 -4 10 3 6 8 10 11 10 2 0 4 -4
4 -10z m-776 -65 c3 -8 -3 -19 -14 -25 -22 -12 -33 0 -24 24 8 20 30 21 38 1z
m392 -96 c9 -15 -11 -33 -30 -26 -9 4 -13 13 -10 22 7 17 30 20 40 4z m-2788
-57 c4 -28 -24 -40 -45 -19 -14 13 -14 19 -3 32 18 22 44 15 48 -13z m4088
-179 c-7 -7 -26 7 -26 19 0 6 6 6 15 -2 9 -7 13 -15 11 -17z m-294 -147 c51
-23 118 -77 118 -96 0 -4 -26 -27 -57 -51 -32 -24 -59 -47 -61 -51 -18 -38
-86 -81 -147 -92 -15 -3 -43 -20 -61 -38 -18 -18 -45 -43 -60 -56 -19 -17 -24
-29 -20 -47 8 -33 -9 -40 -33 -14 -64 69 -75 189 -26 297 31 70 102 142 157
159 59 19 131 15 190 -11z m-4670 -23 c22 -20 23 -36 3 -53 -23 -19 -65 -4
-65 23 0 24 17 47 34 47 5 0 18 -7 28 -17z m264 -125 c15 -7 49 -42 75 -78 40
-54 54 -66 90 -75 23 -5 47 -18 53 -28 9 -15 5 -24 -29 -53 -22 -20 -54 -49
-72 -65 -18 -16 -42 -51 -54 -79 -32 -76 -75 -79 -129 -9 -18 21 -38 39 -45
39 -8 0 -19 9 -25 20 -7 14 -21 20 -43 20 -18 0 -48 8 -67 18 -48 24 -49 67
-2 98 18 13 37 24 42 26 6 2 16 27 24 56 26 100 102 146 182 110z m4536 -101
c19 -39 13 -53 -24 -62 -15 -4 -29 -13 -32 -22 -3 -8 -10 -12 -15 -9 -10 7 -3
44 11 63 5 6 8 17 7 25 -6 50 30 53 53 5z m532 -93 c8 -21 -1 -34 -24 -34 -22
0 -33 23 -17 39 16 16 34 14 41 -5z m-4757 -135 c16 -16 5 -39 -17 -39 -23 0
-34 16 -26 35 6 18 28 19 43 4z m4578 -279 c0 -8 -8 -16 -17 -18 -13 -2 -18 3
-18 18 0 15 5 20 18 18 9 -2 17 -10 17 -18z m429 -36 c8 -21 -1 -34 -25 -34
-12 0 -19 7 -19 18 0 34 33 45 44 16z m-4051 -205 c-17 -17 -37 -1 -22 17 8
10 15 12 23 4 7 -7 7 -13 -1 -21z m-673 -30 c0 -6 -4 -7 -10 -4 -5 3 -10 11
-10 16 0 6 5 7 10 4 6 -3 10 -11 10 -16z m521 -824 c-17 -20 -31 -47 -31 -60
0 -14 -9 -30 -20 -37 -11 -7 -20 -19 -20 -26 0 -12 -56 -52 -73 -52 -4 0 -5
11 -1 24 5 21 3 24 -15 19 -31 -8 -27 18 8 51 20 19 27 34 24 51 -6 31 24 47
77 41 26 -3 43 1 51 10 6 8 16 14 21 14 6 0 -4 -16 -21 -35z"/>
<path d="M7870 7791 c8 -6 18 -7 22 -5 4 3 8 0 8 -5 0 -6 -6 -11 -13 -11 -7 0
-22 -7 -33 -16 -10 -8 -13 -12 -5 -8 11 5 13 3 8 -9 -4 -11 -1 -17 8 -17 8 0
15 7 15 15 0 10 10 15 30 15 17 0 30 5 30 13 0 8 3 8 9 -2 6 -9 6 -22 1 -32
-7 -13 -5 -18 12 -22 30 -8 32 -4 13 34 -15 29 -15 31 -1 26 27 -11 18 2 -14
18 -32 16 -116 22 -90 6z"/>
<path d="M7730 7530 c0 -5 7 -10 15 -10 8 0 15 5 15 10 0 6 -7 10 -15 10 -8 0
-15 -4 -15 -10z"/>
<path d="M6890 7133 c0 -6 7 -19 16 -27 8 -9 11 -16 5 -16 -16 0 28 -69 52
-81 17 -10 16 -3 -12 47 -36 64 -61 96 -61 77z"/>
<path d="M5162 6691 c-15 -42 -5 -112 19 -129 27 -19 42 -78 36 -136 -6 -48
-5 -50 10 -31 9 12 14 14 11 5 -2 -8 -21 -23 -41 -33 -20 -9 -37 -23 -37 -31
0 -19 40 -67 51 -61 5 4 25 -6 44 -21 20 -15 38 -24 41 -21 16 16 -51 297 -71
297 -7 0 -12 12 -12 28 1 25 -17 103 -33 147 -6 16 -8 15 -18 -14z"/>
<path d="M5083 6467 c-39 -12 -43 -33 -8 -49 29 -13 55 3 55 33 0 24 -9 28
-47 16z"/>
<path d="M6670 5960 c0 -5 14 -10 30 -10 17 0 30 4 30 8 0 4 -13 9 -30 10 -16
1 -30 -2 -30 -8z"/>
<path d="M6508 6913 c-10 -2 -18 -8 -18 -13 0 -4 9 -6 20 -3 11 3 20 9 20 14
0 5 -1 8 -2 8 -2 -1 -11 -3 -20 -6z"/>
<path d="M1320 4770 c20 -13 83 -13 75 0 -3 6 -25 10 -48 10 -31 0 -38 -3 -27
-10z"/>
<path d="M1165 4740 c-3 -6 1 -7 9 -4 18 7 21 14 7 14 -6 0 -13 -4 -16 -10z"/>
<path d="M2298 3253 c7 -3 16 -2 19 1 4 3 -2 6 -13 5 -11 0 -14 -3 -6 -6z"/>
<path d="M260 8111 c0 -5 7 -14 15 -21 13 -10 15 -9 15 9 0 12 -6 21 -15 21
-8 0 -15 -4 -15 -9z"/>
<path d="M1235 6960 c-3 -6 1 -7 9 -4 18 7 21 14 7 14 -6 0 -13 -4 -16 -10z"/>
<path d="M3963 6612 c-3 -14 -8 -19 -13 -13 -9 16 -33 -13 -58 -71 l-21 -47
22 12 c12 7 27 19 34 27 11 13 12 12 13 -5 0 -15 7 -21 26 -23 15 -1 33 -7 40
-13 11 -9 15 -7 20 5 3 9 10 13 15 10 5 -3 7 -10 4 -15 -4 -5 -1 -9 4 -9 6 0
11 7 11 16 0 13 3 14 14 5 8 -7 12 -20 9 -30 -2 -10 1 -18 9 -19 7 0 22 -3 33
-7 19 -6 20 -2 17 42 -4 47 -31 90 -48 75 -4 -4 -4 1 -1 11 11 30 -4 42 -19
16 l-13 -24 -1 28 c0 20 -4 26 -12 21 -8 -5 -8 -2 1 10 8 9 10 16 5 15 -5 -1
-11 0 -14 1 -3 1 -20 3 -38 4 -27 1 -34 -2 -39 -22z m124 -94 c-3 -8 -6 -5 -6
6 -1 11 2 17 5 13 3 -3 4 -12 1 -19z m33 -58 c0 -5 -5 -10 -11 -10 -5 0 -7 5
-4 10 3 6 8 10 11 10 2 0 4 -4 4 -10z"/>
<path d="M3832 6508 c-7 -7 -12 -18 -12 -25 0 -7 -4 -13 -8 -13 -10 0 -32 -44
-32 -62 0 -6 15 4 32 23 18 19 36 33 41 31 4 -1 4 10 1 25 -9 35 -8 35 -22 21z"/>
<path d="M2335 6503 c-49 -10 -105 -51 -105 -76 0 -7 -6 -19 -12 -26 -19 -18
-13 -279 8 -334 9 -23 16 -49 17 -58 1 -9 7 -15 13 -12 8 3 10 28 7 86 -4 68
-3 79 9 70 11 -10 13 -2 12 43 -1 43 2 52 12 43 10 -8 14 0 19 36 7 45 27 67
53 58 6 -3 12 -1 12 4 1 24 18 35 39 24 11 -7 21 -8 21 -2 0 5 6 9 13 8 54 -2
59 11 25 70 -15 26 -29 39 -41 37 -9 -1 -22 6 -27 17 -10 18 -31 22 -75 12z"/>
<path d="M2490 6448 c0 -21 62 -118 88 -138 15 -11 32 -24 38 -29 18 -15 12
41 -8 70 -43 65 -118 126 -118 97z"/>
<path d="M3740 6386 c0 -7 -6 -19 -13 -25 -8 -6 -20 -36 -27 -68 -7 -31 -17
-65 -23 -75 -6 -9 -8 -21 -3 -25 7 -8 30 22 32 42 0 6 6 23 13 40 7 16 10 37
8 47 -3 10 -1 18 3 18 4 0 13 14 19 30 6 18 6 30 0 30 -5 0 -9 -6 -9 -14z"/>
<path d="M2646 6296 c8 -65 14 -82 25 -65 6 10 13 3 24 -24 8 -20 17 -37 20
-37 6 0 -6 71 -18 100 -9 24 -10 24 -17 5 -6 -14 -9 -15 -10 -5 0 8 -7 29 -15
45 -15 30 -15 30 -9 -19z"/>
<path d="M2754 6073 c1 -50 -2 -89 -6 -87 -3 2 -9 -5 -13 -16 -3 -11 -13 -20
-21 -20 -8 0 -14 -5 -14 -12 0 -6 -10 -2 -22 9 -29 26 -91 48 -96 33 -2 -5 -9
-10 -16 -10 -18 0 -66 -53 -72 -81 -15 -61 -14 -78 11 -143 18 -47 21 -65 11
-57 -12 10 -15 8 -18 -9 -3 -20 -7 -19 -65 20 -55 37 -133 130 -133 159 0 5
-7 11 -15 15 -17 6 -18 2 -6 -22 14 -27 46 -155 44 -174 -2 -10 1 -18 6 -18 5
0 13 -26 17 -57 3 -32 10 -62 14 -68 7 -9 18 -47 20 -70 1 -5 8 -14 16 -18 8
-5 12 -12 9 -17 -3 -5 3 -28 15 -52 11 -23 20 -47 20 -52 0 -6 9 -17 20 -24
11 -7 20 -8 20 -3 0 12 26 21 73 27 20 3 47 9 60 13 22 9 22 9 -5 21 -22 11
-25 16 -17 31 7 14 6 19 -3 20 -7 0 -3 4 10 9 21 9 27 30 23 86 -2 15 5 23 21
28 18 5 20 8 9 15 -11 7 -10 11 5 20 16 9 16 12 5 20 -11 7 -10 11 8 20 11 7
21 9 21 6 0 -4 15 2 33 13 17 10 40 17 49 15 10 -3 25 2 33 11 9 8 23 12 32 9
15 -6 14 -7 -3 -14 -18 -7 -18 -8 1 -9 16 -1 14 -4 -10 -14 l-30 -14 29 -11
c24 -10 33 -8 62 10 33 20 41 33 27 42 -5 2 -3 3 3 1 20 -4 34 17 20 31 -10
11 -27 11 -87 -1 -96 -18 -113 -18 -105 1 3 8 1 15 -4 15 -5 0 -7 7 -4 15 4 8
12 15 20 15 8 0 14 4 14 10 0 5 -6 7 -14 4 -11 -4 -13 0 -9 15 3 12 13 21 22
22 12 0 11 2 -4 9 -17 7 -17 9 -2 9 9 1 17 7 17 15 0 8 6 17 13 19 10 4 10 6
0 6 -7 1 -13 10 -13 21 0 20 80 183 93 188 4 2 7 13 7 23 0 14 -4 18 -12 13
-8 -5 -7 0 2 11 14 17 13 18 -2 12 -13 -5 -18 -1 -18 13 0 31 -20 34 -21 3 0
-15 -3 -22 -6 -15 -2 6 -11 12 -18 12 -7 0 -16 6 -18 13 -3 6 -6 1 -7 -13 -1
-23 -3 -22 -15 10 -12 33 -13 29 -11 -57z m-60 -165 c12 -16 13 -24 4 -29 -17
-11 -25 -3 -30 26 -6 31 6 32 26 3z"/>
<path d="M3823 6150 c1 -3 -15 -23 -36 -44 l-39 -38 26 -21 c20 -16 23 -24 15
-38 -7 -14 -5 -21 11 -29 11 -6 18 -15 15 -21 -4 -5 -1 -9 4 -9 6 0 11 -9 11
-19 0 -11 5 -23 10 -26 9 -6 42 -70 44 -87 1 -3 10 -15 22 -25 11 -10 19 -23
17 -29 -2 -6 5 -19 16 -28 16 -14 18 -23 10 -37 -7 -15 -6 -19 5 -19 7 0 17
-11 20 -24 3 -14 15 -28 26 -31 11 -3 20 -10 20 -14 0 -4 19 -18 42 -31 40
-22 42 -22 55 -4 10 14 12 45 7 139 -4 66 -8 122 -10 124 -2 2 -20 -4 -39 -13
-22 -11 -43 -15 -53 -10 -18 8 -28 11 -49 13 -10 1 -12 32 -10 124 3 164 -5
179 -105 197 -20 3 -36 4 -35 0z"/>
<path d="M3721 6106 c-14 -15 -18 -26 -12 -30 10 -7 48 41 39 49 -2 3 -15 -6
-27 -19z"/>
<path d="M3283 5843 c-17 -6 -16 -41 2 -138 21 -110 21 -111 44 -91 14 13 24
14 45 7 14 -6 26 -16 26 -22 0 -7 2 -10 4 -8 3 2 -2 31 -9 63 -8 33 -12 63 -9
68 3 4 0 8 -5 8 -6 0 -11 11 -11 23 0 34 -63 99 -87 90z"/>
<path d="M2800 5758 c-23 -19 -23 -20 -3 -14 12 4 24 2 28 -4 3 -5 18 -7 33
-4 46 11 47 23 1 18 -43 -5 -43 -5 -19 10 22 14 23 15 5 15 -11 0 -31 -9 -45
-21z"/>
<path d="M2767 5718 c-8 -5 -6 -9 6 -14 23 -8 136 1 148 13 10 10 -137 12
-154 1z"/>
<path d="M3030 5716 c0 -2 7 -6 15 -10 8 -3 15 -1 15 4 0 6 -7 10 -15 10 -8 0
-15 -2 -15 -4z"/>
<path d="M3636 5680 c-23 -28 -55 -106 -45 -113 2 -1 27 -15 55 -30 62 -33 98
-34 118 -6 14 21 14 21 18 -7 2 -21 9 -30 24 -32 21 -3 21 -2 -6 75 -33 96
-45 120 -70 133 -34 18 -67 11 -94 -20z"/>
<path d="M3024 5636 c-36 -16 -65 -54 -94 -121 -26 -62 -25 -73 8 -81 15 -4
33 -11 39 -17 19 -14 88 -10 120 7 46 26 103 82 103 102 0 26 -34 80 -62 97
-36 23 -80 28 -114 13z m52 -173 c-3 -3 -12 0 -20 7 -14 11 -13 16 2 44 l17
31 3 -39 c2 -21 1 -40 -2 -43z"/>
<path d="M3211 5576 c-11 -13 -5 -46 8 -46 7 0 31 44 31 55 0 11 -28 4 -39 -9z"/>
<path d="M3507 5450 c-16 -5 -40 -20 -53 -34 -14 -13 -38 -28 -54 -31 -39 -9
-49 -24 -38 -62 6 -25 23 -42 66 -69 31 -20 73 -50 93 -65 20 -16 43 -29 51
-29 26 0 100 73 119 117 15 34 17 53 10 89 -10 52 -22 67 -70 83 -39 13 -83
13 -124 1z"/>
<path d="M2855 5419 c-11 -12 -35 -28 -54 -36 -42 -18 -36 -26 11 -13 38 11
72 42 66 60 -2 7 -12 2 -23 -11z"/>
<path d="M2514 5243 c10 -10 46 -11 40 -1 -3 4 -15 8 -26 8 -12 0 -18 -3 -14
-7z"/>
<path d="M3840 5141 c0 -23 -102 -119 -135 -127 -16 -4 -34 1 -54 15 -16 12
-45 28 -64 36 -32 13 -38 12 -113 -21 -43 -18 -100 -41 -126 -50 -27 -8 -48
-19 -48 -22 1 -12 24 -37 103 -110 73 -67 81 -72 124 -72 25 0 58 8 74 17 35
21 84 113 76 144 -4 16 -3 18 9 8 8 -6 14 -24 14 -40 0 -41 11 -36 43 19 15
26 47 78 72 117 43 67 56 105 35 105 -5 0 -10 -9 -10 -19z"/>
<path d="M2994 5025 c-10 -15 -14 -34 -10 -49 7 -29 88 -103 142 -131 21 -11
60 -33 87 -49 33 -20 55 -26 72 -22 29 7 60 -6 91 -40 25 -26 81 -44 140 -44
27 0 55 9 87 30 50 31 64 57 25 44 -35 -11 -139 -12 -178 -1 -46 12 -97 68
-130 143 l-28 61 -57 7 c-32 3 -91 22 -133 41 -41 19 -79 35 -83 35 -5 0 -16
-11 -25 -25z"/>
<path d="M2481 4971 c-10 -7 -10 -10 -1 -16 6 -4 16 -3 22 3 13 13 -4 23 -21
13z"/>
<path d="M7347 4822 c-10 -11 -13 -23 -8 -31 13 -21 41 -5 41 24 0 29 -11 32
-33 7z"/>
<path d="M0 4556 c0 -15 7 -27 19 -31 28 -9 51 5 51 31 0 21 -5 24 -35 24 -30
0 -35 -3 -35 -24z"/>
<path d="M7466 4449 c-4 -9 -6 -36 -4 -60 2 -32 8 -45 21 -47 21 -4 22 35 2
88 -10 27 -14 31 -19 19z"/>
<path d="M8114 4392 c-17 -9 -54 -30 -82 -46 -29 -16 -52 -36 -52 -44 0 -11
-9 -13 -43 -8 -41 6 -45 5 -75 -33 -41 -51 -41 -65 -2 -56 39 8 91 -9 120 -40
29 -31 37 -21 46 57 6 52 10 60 40 79 19 11 34 24 34 29 0 5 12 23 26 40 32
38 28 45 -12 22z"/>
<path d="M4390 4330 c0 -28 -13 -53 -25 -50 -4 1 -30 -24 -57 -56 -27 -31 -65
-70 -84 -85 -99 -79 -305 -175 -494 -233 -302 -91 -715 -112 -911 -46 -34 12
-63 19 -66 17 -2 -3 10 -21 27 -40 45 -51 130 -75 330 -93 65 -6 77 -9 50 -14
-56 -9 -15 -17 90 -18 54 -1 112 5 135 12 l40 13 -33 0 c-59 0 -44 10 25 18
37 4 126 22 197 41 76 20 133 31 138 26 11 -11 -50 -37 -112 -47 -63 -10 -88
-28 -30 -21 53 7 79 12 103 21 35 14 15 -15 -55 -78 -66 -60 -72 -68 -61 -86
11 -18 10 -19 -5 -14 -9 3 18 -30 61 -74 44 -44 86 -80 94 -79 9 0 18 -5 21
-13 3 -9 0 -11 -9 -6 -8 4 -5 -2 7 -14 12 -13 27 -19 36 -16 9 4 53 48 97 100
93 106 219 223 340 315 149 112 228 187 242 227 11 35 14 151 3 162 -3 3 -8 1
-12 -5 -4 -6 -15 -13 -25 -17 -15 -6 -18 -1 -16 36 1 53 -4 76 -20 87 -8 4
-11 12 -8 17 3 5 2 15 -4 23 -7 12 -9 9 -9 -10z m55 -313 c-8 -13 -27 -32 -42
-43 -51 -37 -56 -38 -37 -8 29 48 56 74 76 74 17 0 17 -2 3 -23z m-707 -562
c-3 -3 -9 2 -12 12 -6 14 -5 15 5 6 7 -7 10 -15 7 -18z"/>
<path d="M7588 4279 c-2 -6 -26 -13 -53 -15 -54 -4 -75 -21 -75 -61 0 -14 6
-23 15 -23 27 0 73 29 80 50 8 26 40 43 67 35 15 -5 19 -3 16 6 -6 18 -45 24
-50 8z"/>
<path d="M4654 4205 l3 -47 -59 6 -58 7 0 -34 c0 -18 6 -39 13 -46 10 -11 9
-12 -1 -7 -7 4 2 -13 20 -38 32 -46 32 -46 92 -46 54 -1 144 -10 246 -25 l35
-6 -37 21 c-41 22 -48 39 -51 115 l-2 50 -52 -3 -53 -4 0 -38 c0 -39 -23 -71
-40 -54 -5 5 -18 49 -29 97 -22 102 -31 119 -27 52z m161 -73 c6 -4 12 -25 14
-48 2 -31 -1 -41 -13 -41 -20 0 -17 -6 -22 50 -5 46 0 55 21 39z"/>
<path d="M8017 4088 c-5 -16 5 -40 36 -85 23 -35 46 -63 51 -63 18 0 -3 84
-31 123 -34 49 -49 55 -56 25z"/>
<path d="M7247 4073 c-27 -4 -60 -43 -36 -43 14 0 99 40 99 46 0 4 -19 3 -63
-3z"/>
<path d="M160 4060 c19 -13 30 -13 30 0 0 6 -10 10 -22 10 -19 0 -20 -2 -8
-10z"/>
<path d="M205 4060 c-3 -5 -1 -11 5 -15 5 -3 10 -10 10 -15 0 -10 -165 -6
-199 5 -20 6 -21 4 -21 -89 l0 -95 53 -5 c61 -7 361 -32 492 -41 50 -3 107 -8
127 -11 34 -5 38 -3 45 23 4 15 6 34 5 41 -2 6 4 12 13 12 20 0 19 34 -1 54
-8 9 -24 16 -34 16 -11 0 -45 7 -77 15 -104 28 -197 45 -240 45 -54 0 -103 18
-83 30 8 5 18 6 22 4 4 -3 8 -1 8 5 0 5 -5 13 -12 17 -17 11 -107 14 -113 4z"/>
<path d="M7891 4030 c-62 -35 -67 -38 -58 -46 8 -8 117 54 117 67 0 12 3 13
-59 -21z"/>
<path d="M4563 3872 l-60 -67 28 -34 c15 -18 25 -39 23 -46 -3 -7 0 -16 5 -20
6 -3 9 -11 6 -16 -4 -5 -2 -9 4 -9 6 0 8 -6 6 -12 -3 -7 11 -30 30 -51 19 -21
42 -52 51 -68 8 -16 27 -34 41 -40 14 -5 23 -12 19 -16 -3 -4 6 -19 21 -35 27
-29 27 -29 6 -34 -20 -6 -22 -11 -17 -58 6 -59 9 -324 5 -411 -3 -70 1 -102
18 -134 16 -29 25 -19 41 44 27 110 27 558 0 575 -6 3 -10 17 -10 31 1 13 -4
53 -10 89 -6 36 -8 75 -5 87 3 15 -2 26 -17 37 -13 9 -30 44 -45 88 -26 84
-63 168 -73 168 -4 0 -34 -30 -67 -68z"/>
<path d="M8130 3861 c0 -9 28 -41 35 -41 3 0 -1 11 -7 25 -11 25 -28 34 -28
16z"/>
<path d="M7533 3763 c-17 -6 -16 -28 0 -42 16 -13 37 4 37 31 0 18 -13 21 -37
11z"/>
<path d="M61 3729 c-16 -36 -8 -46 39 -50 23 -2 34 1 33 9 -2 7 2 12 7 12 6 0
10 -4 10 -8 0 -20 279 -66 388 -64 52 1 72 15 65 45 -9 34 -23 47 -54 47 -25
0 -69 -32 -69 -51 0 -3 -30 1 -67 11 -48 12 -69 23 -74 38 -12 32 -31 38 -47
14 -17 -26 -72 -30 -95 -8 -14 14 -79 36 -107 36 -8 0 -21 -14 -29 -31z"/>
<path d="M8180 3740 c0 -5 5 -10 10 -10 6 0 10 5 10 10 0 6 -4 10 -10 10 -5 0
-10 -4 -10 -10z"/>
<path d="M4410 3725 c-10 -12 -10 -15 4 -15 9 0 16 7 16 15 0 8 -2 15 -4 15
-2 0 -9 -7 -16 -15z"/>
<path d="M2817 3704 c5 -13 1 -15 -23 -10 -24 5 -35 1 -56 -21 -14 -15 -32
-48 -39 -72 -12 -41 -12 -44 12 -62 22 -16 23 -20 10 -40 -12 -20 -11 -25 9
-41 12 -10 29 -18 37 -18 8 0 11 -4 8 -10 -9 -15 0 -12 41 12 27 16 39 19 42
10 5 -17 32 4 33 27 1 9 4 5 8 -9 7 -25 8 -24 15 7 4 18 11 35 16 38 13 8 -48
168 -72 188 -26 22 -50 23 -41 1z m58 -204 c-3 -5 -11 -10 -16 -10 -6 0 -7 5
-4 10 3 6 11 10 16 10 6 0 7 -4 4 -10z"/>
<path d="M980 3671 c0 -5 7 -12 16 -15 14 -5 15 -4 4 9 -14 17 -20 19 -20 6z"/>
<path d="M3019 3588 c-13 -11 -1 -12 71 -10 79 4 89 2 113 -20 15 -12 39 -46
55 -75 l28 -52 38 33 39 32 -18 37 c-22 46 -47 54 -195 62 -86 4 -119 2 -131
-7z"/>
<path d="M5314 3582 c2 -9 7 -32 11 -49 4 -18 11 -36 17 -39 7 -4 8 -2 4 4 -4
7 -2 12 4 12 6 0 15 11 22 24 12 28 -1 48 -40 58 -18 5 -22 3 -18 -10z"/>
<path d="M1052 3573 c-19 -13 -28 -14 -43 -5 -10 7 -39 12 -63 12 -37 0 -46
-4 -51 -21 -4 -12 -2 -26 3 -31 6 -6 70 -12 142 -14 115 -4 134 -7 160 -25 27
-21 60 -20 60 0 0 15 -72 48 -94 43 -11 -2 -29 8 -47 27 -32 35 -35 36 -67 14z"/>
<path d="M8147 3542 c-20 -21 -37 -43 -37 -49 0 -16 25 -23 57 -14 25 7 28 12
31 54 2 26 -1 47 -5 47 -5 0 -26 -17 -46 -38z"/>
<path d="M195 3560 c3 -5 10 -10 16 -10 5 0 9 5 9 10 0 6 -7 10 -16 10 -8 0
-12 -4 -9 -10z"/>
<path d="M4236 3562 c-6 -10 30 -52 44 -52 5 0 1 13 -8 30 -17 31 -27 36 -36
22z"/>
<path d="M296 3551 c-7 -11 37 -23 58 -15 9 3 13 10 10 15 -7 12 -61 12 -68 0z"/>
<path d="M475 3530 c3 -5 10 -10 16 -10 5 0 9 5 9 10 0 6 -7 10 -16 10 -8 0
-12 -4 -9 -10z"/>
<path d="M580 3530 c0 -12 60 -29 79 -22 10 4 2 10 -20 18 -43 16 -59 17 -59
4z"/>
<path d="M2984 3522 c-18 -11 -34 -49 -34 -77 0 -43 26 -79 85 -119 74 -49
126 -53 161 -13 59 69 -4 214 -89 205 -29 -3 -39 -13 -52 -53 -6 -19 -7 -19
-17 -2 -8 15 -5 24 13 43 l22 24 -39 0 c-21 0 -44 -4 -50 -8z m216 -107 c0
-17 -2 -17 -10 -5 -5 8 -10 24 -10 35 0 17 2 17 10 5 5 -8 10 -24 10 -35z"/>
<path d="M0 3193 l0 -324 58 -26 c31 -14 91 -41 132 -60 41 -20 98 -46 127
-59 29 -13 57 -32 62 -43 11 -19 60 -41 90 -41 13 1 13 3 -3 15 -47 35 41 10
96 -28 28 -18 48 -16 48 6 1 17 36 57 50 57 6 0 8 -4 5 -10 -3 -5 0 -10 7 -11
7 0 2 -5 -11 -10 -20 -8 -22 -11 -10 -26 12 -14 11 -15 -9 -9 -16 5 -22 3 -22
-7 0 -17 21 -27 53 -26 21 0 21 1 2 9 -15 6 -16 9 -4 9 9 1 27 14 42 30 17 20
32 28 45 24 11 -2 23 0 26 6 10 15 58 14 81 -3 11 -8 43 -14 70 -14 28 -1 59
-2 69 -4 13 -2 19 3 21 19 3 36 11 38 83 21 115 -27 163 -20 122 17 -24 22
-26 55 -3 55 9 0 -11 18 -44 39 -33 21 -63 43 -67 49 -3 5 21 4 57 -4 84 -18
88 -17 42 11 -22 14 -50 25 -63 25 -36 0 -140 52 -254 127 -59 38 -133 78
-165 88 -74 23 -133 60 -133 83 0 27 57 80 99 93 21 6 70 8 116 5 206 -14 375
-18 375 -8 0 10 -12 21 -84 72 -41 29 -44 36 -15 43 12 3 19 12 17 19 -7 20
-57 22 -79 2 -17 -16 -24 -16 -57 -5 -20 8 -45 20 -55 29 -13 12 -22 13 -40 5
-13 -6 -30 -7 -38 -2 -14 7 -155 27 -254 34 -22 2 -60 6 -85 9 -55 7 -351 33
-437 40 l-63 4 0 -325z"/>
<path d="M4154 3472 c-4 -9 -6 -21 -5 -25 1 -5 -3 -6 -8 -2 -12 7 -73 -74 -65
-86 3 -5 2 -9 -3 -9 -4 0 -21 -21 -37 -46 -20 -31 -53 -62 -98 -91 -37 -24
-84 -63 -104 -87 -20 -24 -56 -56 -80 -71 -24 -15 -44 -34 -44 -42 0 -7 -15
-21 -34 -29 -19 -10 -40 -31 -50 -50 -15 -33 -17 -34 -76 -34 -39 0 -60 4 -60
12 0 6 -2 9 -4 7 -3 -2 6 -47 19 -99 14 -52 22 -79 19 -60 -2 19 -7 54 -11 78
l-6 42 50 0 c37 0 60 7 88 26 21 14 43 23 50 20 7 -2 17 -28 23 -58 6 -29 17
-78 26 -108 17 -60 19 -113 6 -145 -7 -18 -11 -15 -30 25 -12 25 -19 34 -16
20 39 -163 49 -198 62 -218 8 -12 16 -40 18 -61 3 -33 0 -38 -13 -34 -9 4 -13
3 -9 -2 4 -4 3 -14 -3 -21 -7 -9 -4 -16 10 -26 12 -8 18 -18 13 -23 -4 -4 2
-5 13 -1 11 4 16 4 12 0 -4 -4 -1 -14 5 -22 7 -8 13 -20 14 -28 2 -11 -2 -11
-19 -3 -33 17 -116 77 -170 123 -109 91 -197 364 -262 807 -21 147 -20 168 8
179 14 5 16 9 6 9 -8 1 -26 -10 -38 -23 -12 -13 -43 -29 -68 -35 -25 -7 -57
-19 -71 -29 l-26 -17 40 -7 c21 -3 56 -4 77 -1 37 6 37 5 37 -30 0 -20 9 -82
20 -139 28 -150 39 -226 42 -291 2 -41 6 -56 15 -53 12 5 29 -43 63 -171 6
-23 14 -45 19 -47 5 -3 11 -19 14 -36 4 -16 25 -50 48 -74 l41 -45 -64 -3
c-35 -2 -116 0 -180 3 -128 7 -159 18 -164 60 -4 42 -39 104 -55 100 -8 -2
-20 -4 -26 -4 -20 -1 -16 -9 27 -70 27 -38 60 -68 103 -93 34 -21 76 -48 92
-60 17 -12 49 -31 72 -43 33 -16 41 -25 37 -43 -4 -25 -37 -144 -47 -168 -3
-8 -10 -35 -16 -60 -17 -78 -40 -154 -59 -195 -10 -22 -27 -64 -36 -94 -24
-72 -57 -106 -94 -94 -19 7 -35 5 -52 -4 -19 -11 -53 -12 -147 -7 -68 3 -123
3 -123 0 0 -4 17 -15 38 -24 32 -15 74 -17 292 -17 280 -1 300 -1 300 -12 0
-5 -19 -16 -41 -25 -23 -10 -38 -22 -34 -28 3 -6 30 -22 58 -36 29 -15 85 -51
125 -80 40 -30 94 -67 120 -83 57 -34 183 -76 272 -91 85 -15 239 -52 371 -88
59 -17 185 -42 280 -57 152 -23 292 -48 774 -135 61 -11 153 -24 205 -30 52
-6 165 -19 250 -30 85 -11 166 -19 180 -19 14 1 123 -4 244 -11 215 -12 279
-9 292 11 7 12 -25 51 -36 44 -11 -7 -38 37 -33 53 3 6 9 10 14 6 5 -3 14 -2
21 2 7 5 5 11 -8 21 -18 13 -17 14 8 38 15 14 32 25 38 25 5 0 10 7 10 15 0 9
-6 15 -14 13 -7 -2 -30 14 -49 35 -20 20 -39 37 -44 37 -4 0 -14 9 -20 19 -16
25 -118 73 -253 118 -148 50 -241 98 -268 139 -24 36 -29 74 -11 74 18 0 38
32 39 61 0 53 90 132 170 149 14 3 24 10 23 15 -3 18 31 46 102 86 75 43 163
96 238 144 26 16 51 41 55 55 14 37 3 89 -22 105 -13 9 -93 21 -208 32 -167
16 -187 19 -183 34 10 31 -52 42 -188 34 -67 -4 -131 -9 -142 -12 -11 -2 -38
-6 -60 -8 -22 -3 -52 -7 -67 -11 -28 -6 -28 -5 -28 44 l0 49 48 12 c26 7 54
17 62 22 8 5 25 13 37 18 11 6 24 15 28 20 3 6 14 11 23 11 25 1 81 56 108
107 22 41 23 45 8 68 -9 14 -21 25 -27 25 -6 0 -7 3 -4 7 4 3 -2 13 -14 21
-11 8 -18 20 -15 28 3 8 2 14 -3 14 -9 0 -35 54 -31 65 1 3 -6 17 -15 31 -9
14 -14 28 -12 31 9 8 -77 103 -93 103 -9 0 -14 -21 -11 -42 0 -3 -12 -4 -27
-2 -15 3 -35 5 -45 5 -12 0 -17 5 -13 14 2 7 -6 21 -20 30 -14 9 -22 20 -19
25 3 5 -6 12 -20 16 -16 4 -25 13 -25 26 0 10 -4 17 -9 14 -8 -5 -23 31 -18
45 1 4 -7 17 -18 30 l-20 22 23 -5 c12 -4 22 -2 22 3 0 5 -38 51 -85 103 -47
52 -85 96 -85 99 0 2 11 5 25 5 14 0 32 5 40 12 13 11 8 18 -35 48 -34 24 -50
42 -50 57 0 18 -38 68 -41 54 0 -2 -7 -71 -14 -153 -12 -130 -16 -150 -34
-163 -12 -8 -21 -22 -22 -31 0 -9 -16 -37 -34 -62 -19 -25 -52 -71 -73 -102
-40 -57 -57 -65 -46 -22 10 38 -2 28 -35 -28 -17 -29 -31 -48 -31 -43 0 6 -5
3 -10 -5 -13 -20 -2 72 15 123 11 32 11 36 -1 26 -8 -6 -21 -37 -30 -68 -26
-87 -54 -141 -74 -141 -18 0 -18 3 1 67 28 100 22 110 -10 18 -35 -101 -69
-167 -81 -160 -5 3 -7 23 -4 43 l6 37 -24 -25 c-13 -14 -23 -28 -21 -31 1 -4
-5 -22 -14 -40 -15 -29 -18 -31 -21 -14 -6 33 -19 38 -41 16 -12 -12 -21 -25
-21 -30 0 -4 -9 -19 -19 -33 -11 -14 -42 -61 -70 -106 -47 -77 -50 -88 -42
-145 0 -4 10 -3 21 3 25 13 36 7 83 -46 22 -25 37 -52 37 -67 0 -30 -43 -85
-77 -98 -14 -5 -31 -26 -43 -54 -20 -47 -44 -58 -55 -25 -10 30 -20 25 -46
-25 -13 -25 -27 -45 -31 -45 -5 0 -8 -7 -8 -15 0 -12 18 -15 103 -15 111 -1
114 -11 7 -30 -79 -14 -120 -41 -120 -78 0 -15 5 -70 12 -123 6 -52 8 -103 5
-113 -6 -16 -9 -16 -36 3 -34 25 -54 26 -71 6 -11 -13 -16 -12 -40 5 -15 11
-30 17 -34 13 -3 -3 -6 -2 -6 4 0 11 -29 11 -49 -2 -10 -5 -12 -4 -7 4 4 6 4
21 0 34 -8 21 -8 21 -13 -7 -5 -23 -12 -30 -34 -33 -18 -2 -29 2 -33 12 -3 8
-10 12 -15 9 -5 -3 -6 3 -2 12 4 12 3 15 -5 10 -8 -5 -12 0 -12 13 0 12 -4 21
-8 21 -4 0 -6 29 -4 65 2 36 1 65 -2 65 -9 0 -26 -46 -32 -89 -6 -47 -24 -91
-36 -91 -5 0 -7 8 -4 18 45 151 56 240 47 382 -3 38 -6 49 -11 35 -4 -11 -3
-51 2 -89 8 -57 6 -87 -11 -170 -41 -196 -33 -185 -153 -210 -84 -17 -502 -24
-512 -8 -9 15 22 127 63 230 31 79 38 107 34 147 -2 34 4 74 20 125 l24 75
139 -4 c116 -3 157 0 251 20 78 16 109 26 103 34 -5 6 -22 44 -39 85 -16 41
-36 76 -43 76 -7 1 -19 2 -25 3 -39 3 35 47 92 55 52 7 75 18 75 35 1 13 4 12
19 -6 16 -19 20 -20 25 -7 3 9 13 14 20 11 9 -4 17 1 19 11 4 16 5 15 6 0 2
-28 21 -21 21 6 0 14 -4 28 -10 31 -5 3 -10 18 -10 33 1 24 3 22 15 -13 8 -22
15 -41 15 -42 0 -2 7 -3 15 -3 8 0 15 -7 15 -15 0 -8 5 -15 10 -15 6 0 10 5
10 10 0 6 14 3 31 -6 l32 -16 -7 28 c-7 28 -7 28 14 9 11 -10 19 -24 16 -31
-3 -8 1 -11 9 -7 11 4 12 10 5 23 -14 25 -13 73 1 65 6 -4 8 -14 5 -22 -3 -8
-2 -12 3 -9 11 7 22 -20 15 -38 -4 -10 6 -13 39 -12 35 0 44 3 39 15 -3 9 -1
12 6 7 8 -4 12 0 12 11 0 15 4 14 21 -7 20 -24 20 -24 14 -2 -5 19 -3 22 17
20 26 -3 33 23 8 29 -13 4 -13 3 0 -7 13 -10 12 -11 -3 -6 -10 3 -22 6 -25 6
-4 0 0 5 8 10 12 7 12 12 2 22 -9 9 -12 9 -12 0 0 -22 -27 -12 -39 14 -6 15
-14 24 -17 21 -3 -3 -1 -15 6 -26 17 -33 1 -25 -41 22 -39 41 -39 41 -23 9 27
-55 8 -48 -29 11 -20 30 -39 57 -44 60 -16 10 -8 -38 10 -67 30 -45 14 -50
-18 -5 -17 22 -38 50 -47 60 -10 10 -18 26 -18 35 0 8 -4 12 -10 9 -5 -3 -10
-1 -10 6 0 15 -70 142 -76 136 -2 -2 12 -34 31 -71 19 -37 35 -79 35 -93 0
-15 6 -34 13 -42 18 -22 38 -71 29 -71 -4 0 -23 24 -42 53 -19 28 -38 54 -42
55 -5 2 -8 10 -8 19 0 12 -2 12 -14 1 -8 -8 -16 -23 -19 -34 -4 -17 -5 -17
-12 4 -6 18 -10 20 -21 11 -11 -9 -14 -9 -14 1 0 20 -24 5 -31 -21 -6 -22 -7
-22 -8 -3 -1 27 -37 39 -50 16 -7 -12 -10 -8 -16 17 -6 30 -8 31 -21 14 -14
-17 -15 -17 -9 5 9 30 -4 70 -16 51 -10 -16 -14 20 -10 84 1 20 -2 37 -7 37
-5 0 -9 -7 -8 -16 1 -22 -20 -29 -28 -9 -4 11 -2 14 6 9 8 -5 9 -2 5 9 -4 10
-2 17 4 17 7 0 9 11 7 25 -3 13 -2 22 2 20 13 -8 33 24 26 40 -7 19 14 55 31
55 7 0 13 12 13 26 0 14 4 23 10 19 6 -4 8 -10 5 -14 -2 -5 7 -19 20 -31 14
-13 25 -18 25 -12 0 15 -22 65 -35 77 -6 6 -8 9 -6 8 2 -2 11 3 19 9 11 10 17
9 26 -4 10 -14 12 -11 12 20 -1 20 -5 43 -9 50 -5 7 7 4 29 -7 20 -11 41 -26
46 -33 16 -27 8 18 -11 54 -24 49 -7 56 37 15 24 -23 32 -27 32 -14 0 9 -6 20
-14 24 -7 4 -17 19 -21 33 -7 22 -6 23 9 11 9 -7 16 -10 16 -6 0 5 8 1 18 -8
27 -25 35 -9 11 24 -16 22 -17 27 -5 23 22 -8 20 13 -1 25 -10 6 -13 10 -8 10
17 0 42 -23 38 -36 -2 -6 1 -15 8 -19 8 -4 9 -3 5 4 -4 7 -3 12 2 12 10 0 57
-51 79 -86 7 -10 -4 14 -23 54 -20 39 -48 82 -64 95 -32 26 -54 63 -45 77 4 6
26 -3 51 -21 25 -17 48 -28 51 -25 4 3 1 6 -5 6 -7 0 -12 8 -12 18 0 23 -69
91 -97 96 -13 3 -24 -2 -29 -12z m1128 -794 c11 -13 29 -41 40 -62 41 -79 101
-156 169 -217 38 -34 67 -64 64 -67 -14 -14 -94 26 -132 66 -24 24 -43 47 -43
52 0 4 -15 23 -32 42 -45 49 -58 66 -58 75 -1 4 -9 26 -20 48 -19 39 -26 85
-14 85 4 0 15 -10 26 -22z m-1122 -165 c0 -7 -4 -13 -10 -13 -5 0 -10 12 -10
28 0 21 2 24 10 12 5 -8 10 -21 10 -27z m268 7 c3 3 6 -5 7 -17 2 -26 -18 -20
-39 12 -22 34 -20 42 5 19 12 -10 24 -17 27 -14z m-311 -2 c-3 -8 -6 -5 -6 6
-1 11 2 17 5 13 3 -3 4 -12 1 -19z m-961 -70 c8 -16 13 -32 11 -34 -5 -5 -47
58 -47 70 0 14 21 -6 36 -36z m2188 -227 c20 -20 27 -37 24 -57 -3 -25 -8 -29
-43 -35 -73 -13 -344 -31 -360 -25 -11 4 -15 16 -13 38 3 31 5 33 37 30 18 -1
39 2 47 8 9 8 18 8 33 1 14 -8 22 -8 27 0 4 7 22 9 48 5 35 -6 46 -3 61 14 13
14 26 19 41 16 17 -5 24 -1 29 14 9 28 37 25 69 -9z m292 -59 c10 -25 9 -51
-5 -110 -8 -30 -20 -56 -27 -59 -8 -3 -17 -23 -20 -44 -10 -61 -25 -66 -83
-24 -77 55 -83 98 -25 176 37 51 72 73 98 63 7 -3 16 2 19 10 7 19 33 11 43
-12z m509 -42 c-3 -5 -13 -10 -21 -10 -8 0 -12 5 -9 10 3 6 13 10 21 10 8 0
12 -4 9 -10z"/>
<path d="M5120 3411 l-165 -79 -3 -74 c-1 -40 2 -79 7 -87 7 -11 42 2 175 70
l166 84 -1 35 c0 19 -4 56 -7 83 l-7 47 -165 -79z"/>
<path d="M1088 3443 c6 -2 18 -2 25 0 6 3 1 5 -13 5 -14 0 -19 -2 -12 -5z"/>
<path d="M1240 3317 c0 -2 7 -18 15 -34 20 -41 137 -91 166 -72 11 7 11 9 -2
9 -9 0 -30 7 -45 15 l-29 15 25 1 c15 0 19 3 10 6 -8 3 -41 18 -73 34 -57 29
-67 32 -67 26z"/>
<path d="M3401 3304 c0 -11 3 -14 6 -6 3 7 2 16 -1 19 -3 4 -6 -2 -5 -13z"/>
<path d="M3412 3260 c0 -14 2 -19 5 -12 2 6 2 18 0 25 -3 6 -5 1 -5 -13z"/>
<path d="M1406 3256 c3 -8 14 -16 25 -19 11 -3 19 -14 19 -26 0 -12 6 -21 13
-22 73 -7 73 -6 73 13 0 12 -5 17 -14 13 -47 -18 -62 -17 -62 3 0 12 -9 23
-20 27 -11 3 -20 11 -20 16 0 5 -4 9 -10 9 -5 0 -7 -6 -4 -14z"/>
<path d="M3421 3214 c0 -11 3 -14 6 -6 3 7 2 16 -1 19 -3 4 -6 -2 -5 -13z"/>
<path d="M4120 3200 c0 -5 5 -10 11 -10 5 0 7 5 4 10 -3 6 -8 10 -11 10 -2 0
-4 -4 -4 -10z"/>
<path d="M7835 3181 c-8 -15 3 -31 21 -31 9 0 14 7 12 17 -4 20 -24 28 -33 14z"/>
<path d="M3431 3164 c0 -11 3 -14 6 -6 3 7 2 16 -1 19 -3 4 -6 -2 -5 -13z"/>
<path d="M5466 3157 c5 -13 55 -47 69 -47 14 0 -18 31 -47 46 -21 11 -26 11
-22 1z"/>
<path d="M1666 3123 c10 -43 14 -45 43 -21 34 27 24 48 -20 48 -27 0 -29 -2
-23 -27z"/>
<path d="M4202 3119 c6 -16 12 -28 14 -26 5 5 -13 57 -20 57 -3 0 0 -14 6 -31z"/>
<path d="M5013 3107 c-49 -29 -73 -57 -38 -43 8 3 24 2 36 -2 18 -7 16 -10
-23 -27 -49 -22 -58 -31 -58 -63 0 -22 1 -22 69 12 38 19 71 42 75 51 9 23 8
105 -1 104 -5 0 -32 -15 -60 -32z"/>
<path d="M2880 3100 c-26 -26 -29 -114 -4 -124 10 -4 13 -2 8 7 -4 6 5 1 19
-12 14 -13 29 -36 32 -51 10 -47 70 -90 125 -90 42 0 67 15 85 50 30 58 15
108 -52 172 -69 67 -171 90 -213 48z"/>
<path d="M8147 3113 c-15 -14 -6 -23 23 -23 32 0 40 14 14 24 -20 8 -29 8 -37
-1z"/>
<path d="M4230 3062 c6 -13 14 -21 18 -18 3 4 -2 14 -12 24 -18 16 -18 16 -6
-6z"/>
<path d="M4159 3055 c14 -30 40 -61 41 -50 0 6 -12 24 -26 40 -14 17 -21 21
-15 10z"/>
<path d="M7850 3056 c0 -15 37 -29 52 -20 13 9 -12 34 -33 34 -11 0 -19 -6
-19 -14z"/>
<path d="M4076 3040 c3 -14 11 -32 16 -40 6 -10 7 -7 2 10 -3 14 -11 32 -16
40 -6 10 -7 7 -2 -10z"/>
<path d="M4260 3023 c0 -6 8 -17 18 -24 16 -13 16 -13 2 6 -8 11 -16 22 -17
24 -2 2 -3 0 -3 -6z"/>
<path d="M6950 3005 c7 -8 16 -12 21 -9 13 8 1 24 -18 24 -13 0 -13 -3 -3 -15z"/>
<path d="M4140 2996 c0 -2 8 -10 18 -17 15 -13 16 -12 3 4 -13 16 -21 21 -21
13z"/>
<path d="M5185 2969 c-4 -6 -5 -12 -2 -15 2 -3 7 2 10 11 7 17 1 20 -8 4z"/>
<path d="M4059 2895 c-6 -10 9 -80 16 -74 1 2 0 22 -4 44 -3 22 -9 36 -12 30z"/>
<path d="M1315 2879 c-10 -15 3 -25 16 -12 7 7 7 13 1 17 -6 3 -14 1 -17 -5z"/>
<path d="M1680 2871 c0 -21 -15 -36 -45 -45 -11 -3 -3 -3 19 -1 35 4 37 3 20
-10 -17 -13 -17 -14 -2 -15 9 0 29 5 45 11 20 7 24 12 14 18 -11 7 -10 11 5
19 16 9 16 11 2 26 -23 22 -58 21 -58 -3z"/>
<path d="M4130 2881 c0 -6 4 -13 10 -16 6 -3 7 1 4 9 -7 18 -14 21 -14 7z"/>
<path d="M4021 2853 c-1 -12 4 -25 9 -28 12 -7 12 2 0 30 -8 19 -9 19 -9 -2z"/>
<path d="M6648 2829 c-10 -5 -18 -17 -18 -25 0 -11 9 -13 43 -8 53 8 57 12 33
30 -23 16 -35 17 -58 3z"/>
<path d="M1258 2753 c7 -3 16 -2 19 1 4 3 -2 6 -13 5 -11 0 -14 -3 -6 -6z"/>
<path d="M1290 2744 c0 -14 168 -84 200 -84 45 0 36 14 -17 29 -43 11 -115 36
-165 56 -10 4 -18 3 -18 -1z"/>
<path d="M4141 2716 c-1 -26 2 -37 9 -30 6 6 6 21 1 39 -9 30 -9 30 -10 -9z"/>
<path d="M2080 2725 c0 -8 12 -17 28 -21 15 -3 33 -7 40 -10 20 -6 14 14 -10
30 -28 20 -58 21 -58 1z"/>
<path d="M3023 2706 c18 -14 108 -39 185 -51 34 -6 42 -4 42 9 0 9 -10 18 -22
20 -92 20 -184 36 -202 36 -20 -1 -20 -1 -3 -14z"/>
<path d="M3531 2712 c-1 -21 42 -187 46 -176 2 6 -8 51 -21 100 -14 49 -25 83
-25 76z"/>
<path d="M4437 2636 c10 -13 19 -23 21 -21 5 5 -22 45 -31 45 -4 0 0 -11 10
-24z"/>
<path d="M4530 2655 c0 -5 5 -17 10 -25 5 -8 10 -10 10 -5 0 6 -5 17 -10 25
-5 8 -10 11 -10 5z"/>
<path d="M1165 2639 c-9 -13 30 -56 67 -75 48 -25 46 5 -3 48 -47 41 -54 44
-64 27z"/>
<path d="M6482 2630 c-35 -8 -60 -26 -50 -35 2 -3 29 -1 58 5 29 5 69 10 89
10 34 1 35 2 17 15 -21 16 -61 18 -114 5z"/>
<path d="M2085 2620 c-3 -5 -1 -18 4 -28 6 -11 8 -21 6 -24 -3 -2 18 -5 45 -7
57 -2 65 11 27 47 -24 23 -71 30 -82 12z"/>
<path d="M1799 2599 c-158 -7 -199 -13 -199 -29 0 -17 75 -24 255 -24 177 -1
180 -1 183 21 5 36 -37 42 -239 32z"/>
<path d="M505 2579 c-12 -18 5 -59 28 -69 22 -10 167 -39 167 -34 0 6 -168
114 -178 114 -6 0 -14 -5 -17 -11z"/>
<path d="M8015 2570 c-3 -5 -12 -7 -20 -3 -8 3 -15 0 -15 -7 0 -7 -7 -10 -15
-6 -9 3 -19 -3 -25 -14 -6 -11 -19 -20 -30 -20 -10 0 -25 -6 -32 -13 -24 -24
-153 -87 -178 -87 -38 0 -154 -62 -198 -105 -24 -24 -47 -44 -50 -43 -15 3
-89 -39 -118 -67 -17 -16 -64 -59 -104 -95 -40 -36 -82 -74 -94 -85 -24 -22
-117 -62 -155 -67 -14 -2 -26 -8 -28 -13 -4 -12 24 -45 59 -69 20 -14 21 -18
8 -26 -8 -5 -35 -10 -59 -10 l-44 0 19 -21 c19 -21 18 -21 -1 -37 -12 -10 -28
-28 -37 -41 -17 -24 -16 -27 15 -85 38 -73 156 -194 245 -253 l64 -41 -31 -17
c-40 -20 -40 -48 2 -73 51 -32 133 -38 665 -48 l342 -7 0 124 0 124 -111 -7
c-61 -4 -119 -10 -127 -13 -9 -3 7 18 34 47 72 77 119 145 161 234 l38 79 3
260 3 260 -41 84 c-48 98 -78 143 -91 136 -5 -4 -9 -2 -9 4 0 15 -38 33 -45
21z m79 -95 c3 -8 1 -15 -4 -15 -6 0 -10 7 -10 15 0 8 2 15 4 15 2 0 6 -7 10
-15z"/>
<path d="M3118 2553 c7 -3 16 -2 19 1 4 3 -2 6 -13 5 -11 0 -14 -3 -6 -6z"/>
<path d="M4623 2526 c7 -14 20 -24 29 -23 24 2 23 14 -2 22 -11 3 -20 11 -20
16 0 5 -4 9 -9 9 -5 0 -4 -11 2 -24z"/>
<path d="M4587 2523 c-4 -3 -7 -15 -7 -25 0 -19 25 -25 35 -8 3 6 -1 10 -10
10 -11 0 -15 5 -11 15 6 16 3 19 -7 8z"/>
<path d="M7500 2520 c0 -5 7 -7 15 -4 8 4 15 8 15 10 0 2 -7 4 -15 4 -8 0 -15
-4 -15 -10z"/>
<path d="M1714 2449 c-4 -7 -29 -8 -76 -4 -58 6 -72 4 -88 -10 -10 -9 -16 -24
-13 -32 3 -8 0 -19 -8 -24 -12 -7 -11 -11 2 -24 14 -14 23 -15 55 -6 22 6 65
11 96 11 63 0 94 -19 139 -84 30 -44 78 -55 134 -32 21 9 45 16 54 16 31 0
101 -35 107 -53 9 -27 70 -49 144 -52 37 -1 79 -10 98 -20 17 -9 40 -15 50
-13 11 3 1 12 -33 28 -27 13 -66 39 -87 58 -20 19 -72 54 -115 77 -92 50 -100
70 -28 70 43 0 50 3 52 20 2 12 -8 28 -24 39 -14 11 -23 14 -19 8 4 -7 1 -12
-7 -12 -23 0 -28 12 -10 25 13 9 -5 13 -92 18 -167 11 -323 9 -331 -4z"/>
<path d="M3605 2423 c16 -39 55 -86 55 -67 0 6 -11 28 -25 48 -14 20 -25 41
-25 46 0 6 -5 10 -10 10 -6 0 -4 -16 5 -37z"/>
<path d="M2260 2410 c-12 -8 -10 -10 8 -10 13 0 20 4 17 10 -7 12 -6 12 -25 0z"/>
<path d="M6340 2408 c-24 -11 -24 -12 -3 -15 26 -5 36 -28 23 -53 -6 -10 -10
-21 -10 -24 0 -9 54 -7 69 3 12 8 13 12 1 26 -11 13 -10 18 5 29 17 12 17 14
-6 29 -27 19 -44 20 -79 5z"/>
<path d="M525 2375 c-16 -7 -35 -11 -41 -8 -12 5 -40 -35 -36 -50 1 -4 -2 -16
-8 -27 -7 -13 -7 -21 1 -25 17 -11 281 -55 291 -49 5 3 8 9 6 12 -6 14 -167
162 -175 161 -4 0 -21 -7 -38 -14z"/>
<path d="M1050 2350 c-8 -5 -25 -10 -36 -10 -12 0 -35 -7 -50 -15 -16 -8 -36
-15 -45 -15 -8 0 -23 -6 -34 -13 -17 -13 -16 -15 13 -25 21 -7 32 -18 32 -30
0 -11 16 -30 40 -46 38 -25 77 -35 66 -17 -5 7 133 -25 189 -44 20 -7 20 -6 1
9 -11 9 -25 16 -32 16 -21 0 -35 26 -26 50 6 16 11 19 16 12 4 -7 18 -12 32
-12 23 0 20 6 -42 75 -67 75 -90 87 -124 65z"/>
<path d="M1730 2270 c-13 -9 -13 -11 0 -20 8 -5 26 -10 39 -10 23 0 24 1 6 20
-21 23 -24 24 -45 10z"/>
<path d="M2585 2208 c-6 -13 -16 -22 -23 -20 -7 1 -12 -2 -12 -7 0 -15 47 -22
77 -11 15 6 35 13 43 16 12 4 10 9 -9 25 -31 26 -64 24 -76 -3z"/>
<path d="M2860 2210 c0 -12 29 -40 41 -40 14 0 -7 36 -26 44 -8 3 -15 1 -15
-4z"/>
<path d="M3020 2140 c-13 -9 -13 -11 0 -20 19 -13 60 -13 60 0 0 5 -9 14 -19
20 -24 12 -22 12 -41 0z"/>
<path d="M1440 2059 c0 -5 5 -7 10 -4 6 3 10 8 10 11 0 2 -4 4 -10 4 -5 0 -10
-5 -10 -11z"/>
<path d="M1429 2017 c-86 -55 -82 -71 28 -117 65 -27 93 -34 166 -36 49 -1 91
-5 94 -8 3 -3 19 6 35 19 16 14 33 25 37 25 11 0 153 -37 175 -46 14 -5 10 6
-17 47 -64 96 -74 107 -100 102 -13 -3 -92 9 -176 26 -84 17 -157 31 -164 31
-7 0 -42 -20 -78 -43z"/>
<path d="M781 1996 l-22 -24 57 -7 c31 -4 64 -9 73 -12 9 -3 0 10 -18 30 -41
43 -59 46 -90 13z"/>
<path d="M2339 1981 c-40 -35 -42 -40 -24 -46 11 -4 41 -15 67 -26 26 -10 58
-19 73 -19 l26 0 -33 62 c-18 35 -40 64 -49 66 -8 1 -35 -15 -60 -37z"/>
<path d="M2971 2001 c-11 -7 -10 -11 7 -20 11 -6 30 -11 41 -11 19 0 20 2 9
20 -14 21 -34 25 -57 11z"/>
<path d="M921 1893 c-19 -16 -20 -20 -9 -36 8 -10 29 -22 48 -26 19 -5 43 -12
53 -16 22 -9 21 13 -4 60 -19 36 -56 44 -88 18z"/>
<path d="M719 1808 c-3 -25 2 -39 26 -74 14 -20 22 -41 18 -47 -3 -5 2 -16 11
-23 26 -19 1 -27 -28 -9 -17 12 -25 13 -28 4 -3 -8 -30 -12 -78 -12 -41 0 -80
-4 -86 -8 -6 -5 -20 -10 -32 -12 -12 -2 -29 -10 -39 -19 -33 -29 -128 -66
-208 -82 -139 -29 -149 -32 -213 -66 l-62 -33 0 -679 0 -679 38 -16 c20 -8 77
-24 127 -34 84 -18 153 -19 1041 -19 l952 0 4 23 c3 16 -5 35 -24 57 -15 19
-28 40 -28 47 0 7 -6 13 -12 13 -7 0 -27 14 -45 30 -18 17 -37 30 -42 30 -6 0
-11 5 -11 10 0 6 -5 10 -11 10 -6 0 -41 22 -78 48 -36 27 -73 51 -81 55 -8 4
-37 20 -65 37 -27 17 -72 43 -99 58 -110 62 -294 190 -344 239 -46 45 -53 58
-48 79 5 18 0 37 -14 61 -11 20 -32 74 -46 122 -13 47 -40 118 -58 156 -19 39
-45 104 -59 145 -35 109 -72 189 -117 261 -22 35 -56 97 -76 136 -62 130 -122
203 -165 203 -11 0 -20 -6 -20 -12z"/>
<path d="M2033 1768 c2 -19 -5 -23 -55 -33 -62 -13 -115 -42 -102 -55 5 -5 68
-20 139 -34 72 -14 140 -29 153 -32 22 -6 21 -4 -14 62 -46 86 -71 114 -101
114 -17 0 -22 -5 -20 -22z"/>
<path d="M4242 1690 c0 -19 2 -27 5 -17 2 9 2 25 0 35 -3 9 -5 1 -5 -18z"/>
<path d="M2232 1515 c-35 -30 -24 -42 52 -56 81 -15 97 -7 61 31 -15 16 -41
34 -56 39 -25 8 -33 6 -57 -14z"/>
<path d="M3309 956 c-2 -2 -36 -6 -76 -9 -87 -7 -95 -11 -208 -106 -109 -91
-109 -91 -165 -133 -53 -40 -75 -92 -65 -153 4 -22 7 -55 7 -74 -1 -48 12 -68
60 -92 100 -51 186 -70 417 -93 244 -25 451 10 451 77 0 14 -140 74 -201 86
-84 18 -91 30 -78 132 15 109 30 146 65 155 19 5 29 2 35 -9 13 -23 75 -29
159 -16 41 7 92 13 112 14 35 3 98 37 98 55 0 16 -127 88 -177 100 -48 11 -55
10 -119 -18 -40 -18 -72 -39 -78 -51 -16 -36 -66 -39 -66 -4 0 9 -25 44 -56
79 -43 50 -62 64 -83 64 -15 0 -30 -2 -32 -4z"/>
<path d="M8018 901 c-8 -9 -30 -30 -50 -47 -20 -17 -39 -42 -43 -55 -18 -65
-30 -80 -91 -119 -35 -22 -65 -45 -65 -50 -1 -6 -1 -17 -1 -25 0 -37 4 -47 30
-73 53 -55 152 -75 315 -65 l87 6 -2 211 -3 210 -37 8 c-74 15 -126 15 -140
-1z"/>
<path d="M2122 893 c-15 -3 -29 -17 -37 -36 -12 -28 -11 -33 14 -57 18 -19 48
-32 95 -44 l69 -16 44 25 c23 14 43 32 43 40 0 7 -28 32 -61 54 -62 41 -94 48
-167 34z"/>
<path d="M5790 504 c-14 -14 -35 -30 -49 -37 -13 -7 -25 -19 -27 -28 -2 -18
-27 -48 -112 -138 -51 -52 -53 -58 -48 -95 4 -21 13 -48 21 -59 8 -12 15 -35
15 -52 0 -22 3 -26 10 -15 8 12 10 12 16 -3 3 -9 12 -17 20 -17 7 0 17 -6 21
-13 22 -36 176 -48 248 -21 22 9 52 18 68 21 15 3 27 8 27 12 0 8 63 37 103
46 15 4 30 11 32 16 3 4 43 26 88 47 45 22 91 49 101 61 11 12 25 21 33 21 29
0 13 24 -47 70 -25 19 -61 48 -81 65 -44 39 -189 110 -265 130 -90 23 -146 20
-174 -11z"/>
<path d="M4375 438 c-11 -11 -65 -63 -119 -116 -110 -108 -146 -146 -146 -156
0 -4 -17 -30 -38 -59 -21 -29 -42 -64 -46 -80 l-6 -27 495 0 c297 0 495 4 495
9 0 5 -24 23 -52 40 -29 16 -80 57 -112 91 -32 33 -63 60 -67 60 -4 0 -23 21
-41 46 -18 25 -51 56 -73 69 -22 12 -88 50 -147 84 -60 33 -111 61 -115 60 -5
-1 -17 -10 -28 -21z"/>
<path d="M6690 143 c-42 -17 -92 -41 -112 -52 -20 -12 -40 -20 -45 -19 -12 4
-103 -53 -103 -64 0 -4 154 -8 343 -8 l342 1 -26 22 c-170 142 -184 150 -278
151 -28 1 -72 -10 -121 -31z"/>
</g>
</svg>
