<svg version="1.1" id="Layer_1" xmlns="http://www.w3.org/2000/svg" xmlns:xlink="http://www.w3.org/1999/xlink" x="0px" y="0px"
	 width="100%" viewBox="0 0 595 419" enable-background="new 0 0 595 419" xml:space="preserve">
<path fill="#000000" opacity="1.000000" stroke="none" 
	d="
M369.000000,420.000000 
	C246.000031,420.000000 123.500061,420.000000 1.000066,420.000000 
	C1.000044,280.333405 1.000044,140.666794 1.000022,1.000141 
	C199.333237,1.000094 397.666473,1.000094 595.999756,1.000047 
	C595.999878,140.666519 595.999878,280.333038 595.999939,419.999786 
	C520.500000,420.000000 445.000000,420.000000 369.000000,420.000000 
M527.840698,345.929840 
	C529.934021,345.922974 532.027405,345.916077 534.985474,346.008087 
	C535.321777,345.202271 535.948303,344.397522 535.951355,343.590424 
	C536.009155,328.287537 536.007507,312.984314 535.955750,297.681396 
	C535.952820,296.819275 535.412109,295.958984 534.214783,295.049042 
	C531.796570,295.068207 529.378418,295.087402 526.345276,295.658234 
	C526.262024,311.819153 526.169922,327.980011 526.131653,344.141052 
	C526.130310,344.711426 526.663025,345.283081 527.840698,345.929840 
M180.995316,305.001953 
	C180.998795,317.236664 180.965607,329.471619 181.057205,341.705658 
	C181.067398,343.068451 181.787323,344.425903 183.050461,345.901917 
	C192.223129,346.088989 190.888382,346.324310 190.959595,338.356750 
	C191.039932,329.366058 190.975616,320.374115 190.978378,311.382721 
	C190.980637,304.006073 190.983353,304.005798 198.116699,304.003845 
	C200.888199,304.003052 203.659698,304.003723 206.650238,304.003723 
	C206.650238,300.700470 206.650238,298.148651 206.650238,295.400269 
	C192.736221,295.400269 179.186340,295.400269 165.712128,295.400269 
	C164.198624,303.289001 164.725113,303.967529 171.984039,304.003967 
	C174.980591,304.019012 177.977051,304.054260 180.995316,305.001953 
M425.812897,345.961395 
	C434.974884,346.013306 434.974915,346.013306 434.987976,336.666992 
	C434.988678,336.167725 434.866333,335.629761 435.009979,335.175842 
	C435.647400,333.161407 435.846252,329.992401 437.155609,329.420563 
	C439.777069,328.275726 442.797394,328.579071 445.065704,331.532349 
	C447.863770,335.175323 451.229736,338.377899 454.284515,341.828979 
	C458.319244,346.386993 462.394897,347.295349 469.158356,344.646790 
	C464.670135,339.324127 460.317108,334.161804 455.718231,328.707916 
	C457.240234,327.815948 457.914154,327.377869 458.624847,327.011108 
	C467.388153,322.488953 467.808502,317.279602 466.988525,308.354401 
	C466.429138,302.265228 461.380310,296.713623 454.160797,295.965088 
	C444.476135,294.961029 434.651459,295.307495 424.111145,295.455200 
	C424.074249,311.466919 424.024017,327.478638 424.039215,343.490326 
	C424.040009,344.306854 424.603668,345.122864 425.812897,345.961395 
M212.200775,295.377136 
	C212.131012,311.644653 212.050308,327.912201 212.040436,344.179749 
	C212.040115,344.707153 212.763245,345.235046 214.018539,345.885956 
	C222.953613,346.108459 222.953568,346.108459 222.960922,337.048126 
	C222.961868,335.883636 223.071121,334.707336 222.944702,333.556885 
	C222.572922,330.173187 223.875961,328.310547 227.388809,329.063629 
	C229.266190,329.466034 231.364853,330.192627 232.706863,331.465393 
	C235.918137,334.511017 238.802567,337.912964 241.705246,341.269379 
	C246.101685,346.353088 249.468979,347.264069 256.975800,344.886871 
	C252.452011,339.275269 248.047775,333.811951 243.445541,328.103027 
	C254.980759,323.712677 255.581146,317.895020 254.881943,309.016876 
	C254.298309,301.606049 248.628143,296.483856 239.876038,295.856262 
	C230.968475,295.217499 222.004074,295.371490 212.200775,295.377136 
M447.840332,279.001434 
	C455.023285,276.877472 460.752319,269.988831 461.071686,263.091888 
	C461.424316,255.475769 458.698517,250.312531 453.223083,248.225098 
	C452.384247,257.804413 449.703735,260.648010 440.689941,261.518097 
	C440.532410,261.235657 440.273529,260.966003 440.235901,260.668396 
	C440.111115,259.680573 439.957764,258.677368 440.006805,257.689545 
	C440.523651,247.284195 436.533844,238.291916 431.017029,229.885498 
	C430.233459,228.691498 427.393494,227.481125 426.470673,227.998917 
	C423.626862,229.594528 421.206573,231.972778 418.702454,234.140182 
	C413.431488,238.702347 408.091064,243.194748 403.004395,247.956390 
	C397.661957,252.957443 391.955658,258.175110 390.974854,265.731781 
	C390.377747,270.332184 387.623474,270.276123 384.807220,270.941895 
	C383.229034,271.315002 381.450470,270.818542 379.859283,271.162781 
	C375.262207,272.157410 374.537598,275.258911 378.210114,279.785797 
	C400.672852,279.869690 423.135620,279.959808 445.598419,279.997314 
	C446.097870,279.998169 446.598328,279.399780 447.840332,279.001434 
M305.651123,180.515228 
	C309.455109,182.701935 313.077209,185.342529 317.109863,186.958725 
	C321.982666,188.911621 324.584900,192.988525 322.930359,197.857101 
	C320.719635,204.362228 318.149170,210.731949 318.884247,217.904114 
	C319.089569,219.907623 317.810181,222.063324 316.778198,223.409775 
	C315.248291,221.970673 313.718384,220.531555 312.188477,219.092453 
	C313.042206,219.710052 313.895935,220.327652 314.749634,220.945251 
	C312.321533,222.229279 309.893402,223.513290 307.465302,224.797302 
	C308.149200,223.984528 308.833069,223.171738 309.516968,222.358948 
	C311.127594,224.270493 312.738251,226.182037 314.348877,228.093582 
	C313.767059,228.383224 313.185211,228.672867 312.603394,228.962509 
	C314.139557,227.305740 315.675720,225.648987 317.877075,224.487915 
	C318.473206,227.760681 318.083954,231.746246 319.842896,234.177887 
	C326.120270,242.855911 325.486328,253.241409 327.787170,262.855957 
	C328.519165,265.914795 328.245514,269.544678 323.674866,271.162842 
	C321.933350,271.779358 321.192017,275.221039 319.994843,277.375153 
	C321.738892,278.241028 323.404572,279.421570 325.249817,279.881226 
	C326.976196,280.311218 328.920074,279.776123 330.720428,280.019440 
	C334.946381,280.590576 337.488312,279.056610 339.174011,274.998474 
	C340.989990,270.626678 343.552307,266.564911 345.830261,262.290497 
	C348.789886,263.081421 351.769318,263.877625 354.620483,264.639557 
	C355.292816,267.926453 355.224060,270.117554 351.547119,271.612823 
	C349.633728,272.390930 348.719788,275.626617 347.354370,277.752167 
	C349.373718,278.492859 351.341736,279.526062 353.426849,279.892242 
	C355.527649,280.261200 357.744843,279.966309 359.911041,279.964478 
	C363.167786,279.961700 365.362061,278.759430 366.860931,275.535095 
	C370.332184,268.067780 374.109985,260.761749 382.775940,257.765808 
	C384.525055,257.161102 385.909149,255.446365 387.407257,254.179260 
	C393.794708,248.776810 400.259613,243.460266 406.509033,237.901886 
	C412.887695,232.228592 419.047455,226.309128 425.587524,220.233139 
	C424.119141,218.920547 422.905457,218.229218 422.250275,217.186844 
	C417.592041,209.775787 412.709869,202.651489 404.806396,198.174973 
	C393.534912,191.790771 386.184570,182.306046 383.068329,169.676437 
	C382.746857,168.373535 382.456055,166.674484 383.012085,165.608215 
	C386.078217,159.727997 389.411896,153.987274 393.242371,148.460724 
	C394.624939,147.496307 396.502899,146.834747 397.308228,145.517441 
	C401.927979,137.961044 407.095367,130.594299 410.572144,122.515572 
	C417.133759,107.268837 411.595825,95.130783 394.678955,91.226257 
	C380.856079,88.035851 366.993927,89.304932 353.865814,95.649567 
	C352.108917,96.498642 349.172394,96.450996 347.444855,95.549149 
	C340.027740,91.677055 333.192810,86.510765 325.509338,83.375648 
	C316.949341,79.882889 307.829010,77.314201 298.710907,75.774887 
	C290.834137,74.445122 282.529602,74.286591 274.576569,75.134201 
	C265.653595,76.085197 256.531647,77.747833 248.193375,80.928436 
	C238.587891,84.592415 229.295319,89.577805 220.716888,95.270309 
	C214.184204,99.605301 207.976883,105.212029 203.384537,111.531700 
	C192.879730,125.987663 184.537399,141.720261 181.445602,159.683594 
	C179.155762,172.987381 179.306473,186.291199 181.587250,199.584152 
	C183.380386,210.034973 186.984070,219.784454 191.765106,229.284988 
	C196.068054,237.835556 197.065063,239.686615 206.082916,238.665955 
	C211.163025,238.090988 217.241165,238.207977 221.134781,233.368530 
	C185.542648,186.023544 203.616730,132.080490 242.416199,108.374878 
	C267.226349,93.216431 316.523041,94.078156 326.770233,110.187576 
	C299.709839,130.011688 280.275269,155.559601 268.294891,186.850616 
	C269.923584,186.419067 271.157288,185.640656 272.108521,184.603256 
	C279.143860,176.930908 286.071594,169.159164 293.167358,161.543701 
	C294.429871,160.188675 296.316467,159.415146 298.186035,158.807587 
	C298.770020,165.312607 298.176147,172.111130 302.582733,178.167465 
	C301.545135,179.712662 300.692139,181.430054 299.438690,182.773941 
	C293.211121,189.450867 287.081573,196.239975 280.521820,202.580200 
	C274.585419,208.317947 268.364716,213.817764 261.854126,218.889435 
	C255.280563,224.010147 248.166458,228.432846 241.342621,233.237289 
	C228.504074,242.276520 214.441910,247.707718 198.582321,247.860641 
	C185.011993,247.991501 175.114334,235.565674 178.800217,223.219849 
	C179.427917,221.117371 179.412521,218.822891 179.694214,216.617111 
	C169.748184,226.097244 163.094955,237.054581 161.041595,250.223877 
	C159.757874,258.456940 161.913651,266.259003 169.971939,269.881409 
	C176.181473,272.672791 183.392258,275.113190 189.986359,274.733215 
	C199.894592,274.162354 209.628983,270.862183 219.489105,268.996277 
	C222.523560,268.422028 226.090729,267.797821 228.783630,268.834290 
	C236.117050,271.656860 242.867691,276.123138 250.308121,278.504303 
	C258.960754,281.273499 267.751160,284.180145 277.203247,283.559448 
	C283.139099,283.169617 289.172394,284.071960 295.082031,283.527191 
	C301.392761,282.945465 307.613556,281.364441 313.860657,280.152863 
	C314.451752,280.038208 315.280701,279.554688 315.442230,279.060394 
	C317.676788,272.222412 320.345703,265.461243 321.778229,258.450317 
	C322.659821,254.135757 320.586853,253.227158 316.386780,254.869003 
	C312.107025,256.542023 307.888519,258.658691 303.436737,259.550415 
	C290.414124,262.158936 277.260071,263.050415 264.246918,259.450684 
	C258.847137,257.956970 253.625916,255.817749 247.724731,253.763657 
	C253.636673,248.722076 258.962646,244.792130 263.542755,240.129456 
	C270.243988,233.307343 276.727356,226.215759 282.731995,218.777573 
	C292.202820,207.045609 299.395996,193.890594 305.651123,180.515228 
M259.529572,324.007782 
	C260.285095,330.698914 261.673676,337.558533 267.347992,341.558746 
	C276.159790,347.770813 285.830780,350.216553 296.551575,345.404053 
	C305.530792,341.373260 313.257812,328.846619 311.831573,319.283142 
	C309.917999,306.452148 304.038757,297.245728 290.325714,294.485016 
	C281.276154,292.663147 272.646393,294.390289 266.598755,300.588562 
	C260.961945,306.365723 258.110443,314.514984 259.529572,324.007782 
M417.788635,316.117279 
	C414.386597,299.181152 401.661285,292.875488 385.550781,294.764648 
	C376.017365,295.882568 367.200958,304.466858 366.137054,317.218201 
	C365.461029,325.320496 365.825317,333.539948 372.275177,339.794403 
	C380.158875,347.439240 395.784576,349.508942 405.501007,344.321808 
	C406.634064,343.716949 407.610840,342.794525 408.600342,341.949402 
	C416.320831,335.355469 418.808716,326.803467 417.788635,316.117279 
M506.229706,324.999329 
	C507.474640,325.972626 509.736877,326.924896 509.757507,327.923462 
	C509.803589,330.157532 509.344543,333.813263 508.002930,334.399628 
	C504.016449,336.141815 499.516357,337.436096 495.193573,337.508545 
	C488.954224,337.613190 484.756165,333.520538 482.424988,328.000793 
	C479.408447,320.858307 481.058228,314.226166 486.072693,308.553925 
	C490.355927,303.708740 495.782867,301.641388 502.174194,303.789764 
	C505.416077,304.879486 508.494537,306.455353 511.182526,307.611664 
	C513.262695,305.856018 515.157104,304.257111 518.744202,301.229614 
	C516.825684,300.246704 515.212219,299.694977 513.924988,298.714813 
	C507.032501,293.466583 499.099670,292.940704 491.212555,294.622681 
	C486.583801,295.609772 481.164825,297.446472 478.199219,300.771942 
	C471.014313,308.828796 470.909546,319.383118 472.357880,329.393860 
	C473.096039,334.496155 475.410004,339.638397 480.837738,342.755981 
	C489.794678,347.900665 499.172089,348.976654 508.482117,345.475800 
	C512.525635,343.955383 517.114746,339.973358 518.431580,336.085022 
	C520.153381,331.000916 519.010986,324.896088 518.768555,319.244629 
	C518.725403,318.237457 517.071960,316.471588 516.153809,316.466248 
	C510.849854,316.435516 505.515045,316.598694 500.259369,317.250183 
	C499.054993,317.399475 497.285675,319.730591 497.297028,321.044464 
	C497.308289,322.347748 499.003479,324.121979 500.392731,324.789948 
	C501.752472,325.443726 503.657745,324.962769 506.229706,324.999329 
M140.145126,323.908020 
	C142.075607,324.320618 144.374161,324.215302 145.851547,325.265350 
	C148.153366,326.901367 150.456848,329.067841 151.581284,331.544525 
	C151.986191,332.436401 149.331314,335.582001 147.481628,336.475983 
	C141.112869,339.554016 134.741653,339.191742 128.962448,334.746246 
	C123.089470,330.228546 123.122459,330.185669 117.164665,335.307739 
	C123.160210,345.916199 133.037460,349.265686 144.109665,347.761810 
	C149.324631,347.053497 155.571991,343.995239 158.683365,339.949738 
	C164.121323,332.879181 162.088211,320.016083 150.567993,317.051239 
	C145.715088,315.802277 140.617065,315.386017 135.894028,313.804230 
	C133.629227,313.045715 130.614899,310.577454 130.444580,308.660980 
	C130.285141,306.866852 133.056885,303.902740 135.196045,302.983643 
	C141.720840,300.180206 147.017471,303.161957 151.618942,308.158325 
	C154.311188,306.781281 156.912354,305.450806 160.713440,303.506561 
	C157.926559,300.891418 156.002365,297.722473 153.333817,296.862030 
	C147.564880,295.001953 141.457993,293.825287 135.408325,293.297241 
	C128.565964,292.700104 121.718369,298.693878 120.160133,305.606537 
	C118.629555,312.396576 121.545876,318.224060 128.630112,321.181976 
	C131.999847,322.589020 135.810257,322.940704 140.145126,323.908020 
M96.536804,298.972198 
	C94.742371,294.111572 90.574303,294.892700 86.850800,295.158752 
	C85.515198,295.254211 83.608673,296.235352 83.080025,297.344696 
	C78.847343,306.226776 74.897018,315.243073 70.828354,324.203796 
	C69.266846,327.642822 67.508583,330.996429 66.047729,334.476227 
	C64.572350,337.990570 63.354366,341.612946 61.979153,345.307495 
	C71.716049,346.930573 71.919189,346.676941 75.313828,339.147736 
	C75.971222,337.689636 78.315933,336.227203 79.969009,336.121368 
	C85.775146,335.749756 91.657143,335.584167 97.429909,336.154480 
	C99.722809,336.381012 102.706001,338.231567 103.816948,340.215271 
	C107.317291,346.465424 108.629051,347.266785 117.014435,345.025391 
	C115.382187,341.250854 113.804985,337.519958 112.161415,333.818512 
	C107.099701,322.419250 102.012650,311.031219 96.536804,298.972198 
M318.070648,330.099213 
	C319.596436,333.165924 320.658844,336.597504 322.733246,339.232269 
	C329.485687,347.808868 347.309448,348.527191 355.037598,345.068146 
	C363.809998,341.141602 364.100800,339.163513 356.487793,333.253143 
	C356.261963,333.077850 355.854279,333.136871 356.949158,333.307190 
	C352.661957,334.783936 349.560455,335.784637 346.508148,336.917908 
	C340.471344,339.159332 335.066956,337.143463 331.059784,333.096039 
	C326.340515,328.329407 325.448090,321.537415 327.500244,315.447388 
	C331.379730,303.934662 343.237976,300.460052 353.533661,306.982117 
	C354.487915,307.586639 356.569061,307.766754 357.268341,307.157867 
	C359.146484,305.522400 360.558929,303.352051 362.184174,301.359985 
	C349.681000,292.988373 336.093719,291.986237 327.921387,297.781647 
	C318.079224,304.761200 315.245544,317.704102 318.070648,330.099213 
M162.006744,207.585220 
	C164.378540,205.575729 166.750336,203.566238 169.736191,201.036484 
	C159.535538,200.336929 158.571091,192.369934 156.216415,185.141663 
	C156.291794,194.495453 151.998993,200.168320 143.080887,202.700058 
	C150.981903,204.831482 155.146866,210.241653 157.812820,217.250183 
	C159.143524,213.938416 160.313660,211.026245 162.006744,207.585220 
M251.974640,207.950348 
	C254.250580,205.003937 256.526520,202.057541 259.029999,198.816574 
	C252.243713,198.835083 252.889572,191.369583 248.990204,187.576538 
	C249.494446,194.043228 246.626709,197.919464 240.401108,200.423187 
	C247.115509,201.710678 249.225723,206.505402 251.413483,211.693329 
	C251.497467,210.649307 251.581467,209.605270 251.974640,207.950348 
M274.733978,126.784645 
	C278.214264,122.721237 277.610565,119.558044 273.304443,117.275101 
	C271.795624,119.362808 270.374664,121.328911 268.955139,123.293030 
	C270.777832,124.648216 272.481445,125.914856 274.733978,126.784645 
M244.196426,149.073669 
	C240.648315,149.099731 240.776917,151.685593 241.212128,153.926544 
	C241.421310,155.003616 243.154190,156.778259 243.683502,156.611069 
	C245.195206,156.133606 247.510223,154.855042 247.541031,153.832291 
	C247.585144,152.368179 245.884491,150.851517 244.196426,149.073669 
z"/>
<path fill="#353535" opacity="1.000000" stroke="none" 
	d="
M297.914886,158.373108 
	C296.316467,159.415146 294.429871,160.188675 293.167358,161.543701 
	C286.071594,169.159164 279.143860,176.930908 272.108521,184.603256 
	C271.157288,185.640656 269.923584,186.419067 268.294891,186.850616 
	C280.275269,155.559601 299.709839,130.011688 326.770233,110.187576 
	C316.523041,94.078156 267.226349,93.216431 242.416199,108.374878 
	C203.616730,132.080490 185.542648,186.023544 221.134781,233.368530 
	C217.241165,238.207977 211.163025,238.090988 206.082916,238.665955 
	C197.065063,239.686615 196.068054,237.835556 191.765106,229.284988 
	C186.984070,219.784454 183.380386,210.034973 181.587250,199.584152 
	C179.306473,186.291199 179.155762,172.987381 181.445602,159.683594 
	C184.537399,141.720261 192.879730,125.987663 203.384537,111.531700 
	C207.976883,105.212029 214.184204,99.605301 220.716888,95.270309 
	C229.295319,89.577805 238.587891,84.592415 248.193375,80.928436 
	C256.531647,77.747833 265.653595,76.085197 274.576569,75.134201 
	C282.529602,74.286591 290.834137,74.445122 298.710907,75.774887 
	C307.829010,77.314201 316.949341,79.882889 325.509338,83.375648 
	C333.192810,86.510765 340.027740,91.677055 347.444855,95.549149 
	C349.172394,96.450996 352.108917,96.498642 353.865814,95.649567 
	C366.993927,89.304932 380.856079,88.035851 394.678955,91.226257 
	C411.595825,95.130783 417.133759,107.268837 410.572144,122.515572 
	C407.095367,130.594299 401.927979,137.961044 397.308228,145.517441 
	C396.502899,146.834747 394.624939,147.496307 393.079651,147.962769 
	C393.220428,145.731430 393.523956,143.998062 393.988434,141.816193 
	C394.029510,138.556046 393.909607,135.744385 393.853912,132.572998 
	C393.972656,131.975800 394.027222,131.738342 394.311157,131.324158 
	C394.127136,129.776718 393.982849,128.240295 393.257141,127.061913 
	C388.019928,118.557770 373.950165,114.268784 363.416901,117.215744 
	C347.678772,121.618896 333.254364,128.488449 320.343933,138.514435 
	C314.277161,143.225754 308.217316,147.946014 301.848297,152.726715 
	C300.333130,154.651825 299.124023,156.512466 297.914886,158.373108 
z"/>
<path fill="#0C6265" opacity="1.000000" stroke="none" 
	d="
M393.827454,142.264694 
	C393.523956,143.998062 393.220428,145.731430 392.785339,147.831757 
	C389.411896,153.987274 386.078217,159.727997 383.012085,165.608215 
	C382.456055,166.674484 382.746857,168.373535 383.068329,169.676437 
	C386.184570,182.306046 393.534912,191.790771 404.806396,198.174973 
	C412.709869,202.651489 417.592041,209.775787 422.250275,217.186844 
	C422.905457,218.229218 424.119141,218.920547 425.587524,220.233139 
	C419.047455,226.309128 412.887695,232.228592 406.509033,237.901886 
	C400.259613,243.460266 393.794708,248.776810 387.407257,254.179260 
	C385.909149,255.446365 384.525055,257.161102 382.775940,257.765808 
	C374.109985,260.761749 370.332184,268.067780 366.860931,275.535095 
	C365.362061,278.759430 363.167786,279.961700 359.911041,279.964478 
	C357.744843,279.966309 355.527649,280.261200 353.426849,279.892242 
	C351.341736,279.526062 349.373718,278.492859 347.354370,277.752167 
	C348.719788,275.626617 349.633728,272.390930 351.547119,271.612823 
	C355.224060,270.117554 355.292816,267.926453 354.620483,264.639557 
	C351.769318,263.877625 348.789886,263.081421 345.830261,262.290497 
	C343.552307,266.564911 340.989990,270.626678 339.174011,274.998474 
	C337.488312,279.056610 334.946381,280.590576 330.720428,280.019440 
	C328.920074,279.776123 326.976196,280.311218 325.249817,279.881226 
	C323.404572,279.421570 321.738892,278.241028 319.994843,277.375153 
	C321.192017,275.221039 321.933350,271.779358 323.674866,271.162842 
	C328.245514,269.544678 328.519165,265.914795 327.787170,262.855957 
	C325.486328,253.241409 326.120270,242.855911 319.842896,234.177887 
	C318.083954,231.746246 318.473206,227.760681 317.531342,224.265930 
	C317.185608,224.043930 317.211853,224.149200 317.211853,224.149200 
	C317.810181,222.063324 319.089569,219.907623 318.884247,217.904114 
	C318.149170,210.731949 320.719635,204.362228 322.930359,197.857101 
	C324.584900,192.988525 321.982666,188.911621 317.109863,186.958725 
	C313.077209,185.342529 309.455109,182.701935 305.242065,179.972137 
	C304.177704,178.816925 303.522430,178.204819 302.867126,177.592712 
	C298.176147,172.111130 298.770020,165.312607 298.050476,158.590332 
	C299.124023,156.512466 300.333130,154.651825 301.806213,153.031982 
	C302.592072,154.178024 303.021301,155.779602 303.652527,155.863617 
	C305.942688,156.168472 308.301697,155.913315 310.632629,155.964478 
	C314.188477,156.042511 315.586487,158.343582 314.549438,161.267303 
	C313.809357,163.353882 311.973480,165.708832 310.021759,166.564774 
	C306.514069,168.103104 306.614655,170.176285 308.039948,172.734543 
	C308.906219,174.289398 310.225555,175.670013 311.577240,176.861237 
	C315.256561,180.103745 323.249908,181.287781 326.242737,179.138306 
	C326.022095,178.535950 325.871033,177.874374 325.556274,177.303009 
	C322.639648,172.009125 319.470398,166.838318 316.863495,161.397491 
	C315.748779,159.071045 316.820984,156.839859 319.991272,156.903305 
	C324.435669,156.992264 327.283234,154.370346 330.126923,151.456009 
	C331.537842,150.009995 333.290161,148.738113 335.120575,147.888611 
	C342.048065,144.673615 348.963196,145.231445 356.073608,147.763184 
	C357.726898,148.351883 360.280731,146.729660 362.278992,145.815979 
	C362.802887,145.576431 362.515442,143.844177 363.080902,143.368790 
	C367.113922,139.978241 370.950745,136.187027 375.453339,133.555908 
	C386.092133,127.339073 387.001343,125.899925 394.081757,131.500900 
	C394.027222,131.738342 393.972656,131.975800 393.580566,132.869873 
	C393.437836,136.439240 393.632629,139.351974 393.827454,142.264694 
M346.456207,187.982834 
	C345.348663,188.687393 344.218536,189.359039 343.137085,190.101639 
	C332.737854,197.242523 327.264465,207.493118 327.291229,219.735901 
	C327.313049,229.721954 330.751953,239.299698 338.567535,246.264236 
	C341.830139,249.171585 346.082092,250.968735 350.440857,253.607712 
	C348.395264,246.904297 346.270569,241.742477 345.296570,236.371979 
	C343.321014,225.479126 348.103394,216.278381 354.479309,208.128311 
	C357.132538,204.736847 361.810059,202.990524 365.327118,200.194275 
	C368.238800,197.879379 371.194214,195.424850 373.436401,192.500229 
	C379.332581,184.809433 374.903870,170.079483 365.421875,167.015305 
	C366.619415,176.661682 365.029327,179.907257 357.766479,182.917892 
	C354.174042,184.407043 350.634155,186.023026 346.456207,187.982834 
z"/>
<path fill="#363636" opacity="1.000000" stroke="none" 
	d="
M302.724915,177.880096 
	C303.522430,178.204819 304.177704,178.816925 305.022125,179.708099 
	C299.395996,193.890594 292.202820,207.045609 282.731995,218.777573 
	C276.727356,226.215759 270.243988,233.307343 263.542755,240.129456 
	C258.962646,244.792130 253.636673,248.722076 247.724731,253.763657 
	C253.625916,255.817749 258.847137,257.956970 264.246918,259.450684 
	C277.260071,263.050415 290.414124,262.158936 303.436737,259.550415 
	C307.888519,258.658691 312.107025,256.542023 316.386780,254.869003 
	C320.586853,253.227158 322.659821,254.135757 321.778229,258.450317 
	C320.345703,265.461243 317.676788,272.222412 315.442230,279.060394 
	C315.280701,279.554688 314.451752,280.038208 313.860657,280.152863 
	C307.613556,281.364441 301.392761,282.945465 295.082031,283.527191 
	C289.172394,284.071960 283.139099,283.169617 277.203247,283.559448 
	C267.751160,284.180145 258.960754,281.273499 250.308121,278.504303 
	C242.867691,276.123138 236.117050,271.656860 228.783630,268.834290 
	C226.090729,267.797821 222.523560,268.422028 219.489105,268.996277 
	C209.628983,270.862183 199.894592,274.162354 189.986359,274.733215 
	C183.392258,275.113190 176.181473,272.672791 169.971939,269.881409 
	C161.913651,266.259003 159.757874,258.456940 161.041595,250.223877 
	C163.094955,237.054581 169.748184,226.097244 179.694214,216.617111 
	C179.412521,218.822891 179.427917,221.117371 178.800217,223.219849 
	C175.114334,235.565674 185.011993,247.991501 198.582321,247.860641 
	C214.441910,247.707718 228.504074,242.276520 241.342621,233.237289 
	C248.166458,228.432846 255.280563,224.010147 261.854126,218.889435 
	C268.364716,213.817764 274.585419,208.317947 280.521820,202.580200 
	C287.081573,196.239975 293.211121,189.450867 299.438690,182.773941 
	C300.692139,181.430054 301.545135,179.712662 302.724915,177.880096 
z"/>
<path fill="#0C6265" opacity="1.000000" stroke="none" 
	d="
M377.919312,278.926147 
	C374.537598,275.258911 375.262207,272.157410 379.859283,271.162781 
	C381.450470,270.818542 383.229034,271.315002 384.807220,270.941895 
	C387.623474,270.276123 390.377747,270.332184 390.974854,265.731781 
	C391.955658,258.175110 397.661957,252.957443 403.004395,247.956390 
	C408.091064,243.194748 413.431488,238.702347 418.702454,234.140182 
	C421.206573,231.972778 423.626862,229.594528 426.470673,227.998917 
	C427.393494,227.481125 430.233459,228.691498 431.017029,229.885498 
	C436.533844,238.291916 440.523651,247.284195 440.006805,257.689545 
	C439.957764,258.677368 440.111115,259.680573 440.235901,260.668396 
	C440.273529,260.966003 440.532410,261.235657 440.692566,261.516663 
	C449.703735,260.648010 452.384247,257.804413 453.223083,248.225098 
	C458.698517,250.312531 461.424316,255.475769 461.071686,263.091888 
	C460.752319,269.988831 455.023285,276.877472 447.005524,278.927399 
	C423.420258,278.877625 400.669769,278.901886 377.919312,278.926147 
z"/>
<path fill="#0E6163" opacity="1.000000" stroke="none" 
	d="
M213.064560,295.178314 
	C222.004074,295.371490 230.968475,295.217499 239.876038,295.856262 
	C248.628143,296.483856 254.298309,301.606049 254.881943,309.016876 
	C255.581146,317.895020 254.980759,323.712677 243.445541,328.103027 
	C248.047775,333.811951 252.452011,339.275269 256.975800,344.886871 
	C249.468979,347.264069 246.101685,346.353088 241.705246,341.269379 
	C238.802567,337.912964 235.918137,334.511017 232.706863,331.465393 
	C231.364853,330.192627 229.266190,329.466034 227.388809,329.063629 
	C223.875961,328.310547 222.572922,330.173187 222.944702,333.556885 
	C223.071121,334.707336 222.961868,335.883636 222.960922,337.048126 
	C222.953568,346.108459 222.953613,346.108459 213.536896,345.379150 
	C213.058365,328.307678 213.061462,311.743011 213.064560,295.178314 
M245.484970,311.145721 
	C242.981247,308.970154 240.787628,305.743530 237.893921,304.889771 
	C234.415909,303.863617 230.341568,304.957184 226.526245,304.940704 
	C224.009369,304.929840 223.111725,305.887573 222.934784,308.452881 
	C222.139374,319.985229 222.060913,319.979828 233.458832,319.971588 
	C234.291061,319.971008 235.123444,319.980743 235.955490,319.968597 
	C241.805878,319.883087 244.204361,317.896667 245.484970,311.145721 
z"/>
<path fill="#353535" opacity="1.000000" stroke="none" 
	d="
M424.886871,295.074158 
	C434.651459,295.307495 444.476135,294.961029 454.160797,295.965088 
	C461.380310,296.713623 466.429138,302.265228 466.988525,308.354401 
	C467.808502,317.279602 467.388153,322.488953 458.624847,327.011108 
	C457.914154,327.377869 457.240234,327.815948 455.718231,328.707916 
	C460.317108,334.161804 464.670135,339.324127 469.158356,344.646790 
	C462.394897,347.295349 458.319244,346.386993 454.284515,341.828979 
	C451.229736,338.377899 447.863770,335.175323 445.065704,331.532349 
	C442.797394,328.579071 439.777069,328.275726 437.155609,329.420563 
	C435.846252,329.992401 435.647400,333.161407 435.009979,335.175842 
	C434.866333,335.629761 434.988678,336.167725 434.987976,336.666992 
	C434.974915,346.013306 434.974884,346.013306 425.405945,345.487610 
	C424.961609,328.367249 424.924255,311.720703 424.886871,295.074158 
M450.203522,304.860840 
	C446.397827,304.906830 442.573914,304.756683 438.796539,305.107605 
	C437.512360,305.226868 435.557922,306.379883 435.246948,307.449310 
	C432.190613,317.960907 436.863403,322.932556 447.444061,320.676056 
	C448.087646,320.538788 448.703247,320.274811 449.343597,320.117310 
	C453.426331,319.112701 457.640259,317.062988 457.179016,312.697998 
	C456.880768,309.875366 453.148468,307.415588 450.203522,304.860840 
z"/>
<path fill="#116365" opacity="1.000000" stroke="none" 
	d="
M259.366425,323.618073 
	C258.110443,314.514984 260.961945,306.365723 266.598755,300.588562 
	C272.646393,294.390289 281.276154,292.663147 290.325714,294.485016 
	C304.038757,297.245728 309.917999,306.452148 311.831573,319.283142 
	C313.257812,328.846619 305.530792,341.373260 296.551575,345.404053 
	C285.830780,350.216553 276.159790,347.770813 267.347992,341.558746 
	C261.673676,337.558533 260.285095,330.698914 259.366425,323.618073 
M281.963745,337.990875 
	C298.590576,339.488556 306.619812,323.404449 299.054413,311.352356 
	C295.506805,305.700775 289.867706,303.019379 281.293396,304.012939 
	C275.989655,304.627502 271.652130,308.684753 270.046906,314.532623 
	C267.052521,325.441406 270.465759,332.631409 281.963745,337.990875 
z"/>
<path fill="#373737" opacity="1.000000" stroke="none" 
	d="
M417.840820,316.553162 
	C418.808716,326.803467 416.320831,335.355469 408.600342,341.949402 
	C407.610840,342.794525 406.634064,343.716949 405.501007,344.321808 
	C395.784576,349.508942 380.158875,347.439240 372.275177,339.794403 
	C365.825317,333.539948 365.461029,325.320496 366.137054,317.218201 
	C367.200958,304.466858 376.017365,295.882568 385.550781,294.764648 
	C401.661285,292.875488 414.386597,299.181152 417.840820,316.553162 
M392.113647,303.013397 
	C380.983643,304.759460 375.550110,311.229889 375.991394,322.212311 
	C376.290222,329.649719 380.692719,336.018433 386.563171,337.505707 
	C394.095184,339.413910 402.005585,335.750397 406.136078,329.278442 
	C413.030548,318.475769 403.096863,303.408844 392.113647,303.013397 
z"/>
<path fill="#373737" opacity="1.000000" stroke="none" 
	d="
M505.776642,324.989624 
	C503.657745,324.962769 501.752472,325.443726 500.392731,324.789948 
	C499.003479,324.121979 497.308289,322.347748 497.297028,321.044464 
	C497.285675,319.730591 499.054993,317.399475 500.259369,317.250183 
	C505.515045,316.598694 510.849854,316.435516 516.153809,316.466248 
	C517.071960,316.471588 518.725403,318.237457 518.768555,319.244629 
	C519.010986,324.896088 520.153381,331.000916 518.431580,336.085022 
	C517.114746,339.973358 512.525635,343.955383 508.482117,345.475800 
	C499.172089,348.976654 489.794678,347.900665 480.837738,342.755981 
	C475.410004,339.638397 473.096039,334.496155 472.357880,329.393860 
	C470.909546,319.383118 471.014313,308.828796 478.199219,300.771942 
	C481.164825,297.446472 486.583801,295.609772 491.212555,294.622681 
	C499.099670,292.940704 507.032501,293.466583 513.924988,298.714813 
	C515.212219,299.694977 516.825684,300.246704 518.744202,301.229614 
	C515.157104,304.257111 513.262695,305.856018 511.182526,307.611664 
	C508.494537,306.455353 505.416077,304.879486 502.174194,303.789764 
	C495.782867,301.641388 490.355927,303.708740 486.072693,308.553925 
	C481.058228,314.226166 479.408447,320.858307 482.424988,328.000793 
	C484.756165,333.520538 488.954224,337.613190 495.193573,337.508545 
	C499.516357,337.436096 504.016449,336.141815 508.002930,334.399628 
	C509.344543,333.813263 509.803589,330.157532 509.757507,327.923462 
	C509.736877,326.924896 507.474640,325.972626 505.776642,324.989624 
z"/>
<path fill="#126264" opacity="1.000000" stroke="none" 
	d="
M139.783081,323.839233 
	C135.810257,322.940704 131.999847,322.589020 128.630112,321.181976 
	C121.545876,318.224060 118.629555,312.396576 120.160133,305.606537 
	C121.718369,298.693878 128.565964,292.700104 135.408325,293.297241 
	C141.457993,293.825287 147.564880,295.001953 153.333817,296.862030 
	C156.002365,297.722473 157.926559,300.891418 160.713440,303.506561 
	C156.912354,305.450806 154.311188,306.781281 151.618942,308.158325 
	C147.017471,303.161957 141.720840,300.180206 135.196045,302.983643 
	C133.056885,303.902740 130.285141,306.866852 130.444580,308.660980 
	C130.614899,310.577454 133.629227,313.045715 135.894028,313.804230 
	C140.617065,315.386017 145.715088,315.802277 150.567993,317.051239 
	C162.088211,320.016083 164.121323,332.879181 158.683365,339.949738 
	C155.571991,343.995239 149.324631,347.053497 144.109665,347.761810 
	C133.037460,349.265686 123.160210,345.916199 117.164665,335.307739 
	C123.122459,330.185669 123.089470,330.228546 128.962448,334.746246 
	C134.741653,339.191742 141.112869,339.554016 147.481628,336.475983 
	C149.331314,335.582001 151.986191,332.436401 151.581284,331.544525 
	C150.456848,329.067841 148.153366,326.901367 145.851547,325.265350 
	C144.374161,324.215302 142.075607,324.320618 139.783081,323.839233 
z"/>
<path fill="#0F6164" opacity="1.000000" stroke="none" 
	d="
M96.736122,299.305511 
	C102.012650,311.031219 107.099701,322.419250 112.161415,333.818512 
	C113.804985,337.519958 115.382187,341.250854 117.014435,345.025391 
	C108.629051,347.266785 107.317291,346.465424 103.816948,340.215271 
	C102.706001,338.231567 99.722809,336.381012 97.429909,336.154480 
	C91.657143,335.584167 85.775146,335.749756 79.969009,336.121368 
	C78.315933,336.227203 75.971222,337.689636 75.313828,339.147736 
	C71.919189,346.676941 71.716049,346.930573 61.979153,345.307495 
	C63.354366,341.612946 64.572350,337.990570 66.047729,334.476227 
	C67.508583,330.996429 69.266846,327.642822 70.828354,324.203796 
	C74.897018,315.243073 78.847343,306.226776 83.080025,297.344696 
	C83.608673,296.235352 85.515198,295.254211 86.850800,295.158752 
	C90.574303,294.892700 94.742371,294.111572 96.736122,299.305511 
M88.127060,309.578644 
	C85.718369,315.468262 83.309669,321.357880 80.612152,327.953735 
	C86.089539,327.953735 90.544601,328.036926 94.994392,327.919800 
	C97.334137,327.858215 98.230820,326.810669 97.090530,324.342834 
	C94.763687,319.307098 92.673683,314.162048 90.377525,309.111389 
	C90.264824,308.863495 89.118004,309.085785 88.127060,309.578644 
z"/>
<path fill="#373738" opacity="1.000000" stroke="none" 
	d="
M317.972961,329.692627 
	C315.245544,317.704102 318.079224,304.761200 327.921387,297.781647 
	C336.093719,291.986237 349.681000,292.988373 362.184174,301.359985 
	C360.558929,303.352051 359.146484,305.522400 357.268341,307.157867 
	C356.569061,307.766754 354.487915,307.586639 353.533661,306.982117 
	C343.237976,300.460052 331.379730,303.934662 327.500244,315.447388 
	C325.448090,321.537415 326.340515,328.329407 331.059784,333.096039 
	C335.066956,337.143463 340.471344,339.159332 346.508148,336.917908 
	C349.560455,335.784637 352.661957,334.783936 356.949158,333.307190 
	C355.854279,333.136871 356.261963,333.077850 356.487793,333.253143 
	C364.100800,339.163513 363.809998,341.141602 355.037598,345.068146 
	C347.309448,348.527191 329.485687,347.808868 322.733246,339.232269 
	C320.658844,336.597504 319.596436,333.165924 317.972961,329.692627 
z"/>
<path fill="#0A6063" opacity="1.000000" stroke="none" 
	d="
M180.973541,304.080353 
	C177.977051,304.054260 174.980591,304.019012 171.984039,304.003967 
	C164.725113,303.967529 164.198624,303.289001 165.712128,295.400269 
	C179.186340,295.400269 192.736221,295.400269 206.650238,295.400269 
	C206.650238,298.148651 206.650238,300.700470 206.650238,304.003723 
	C203.659698,304.003723 200.888199,304.003052 198.116699,304.003845 
	C190.983353,304.005798 190.980637,304.006073 190.978378,311.382721 
	C190.975616,320.374115 191.039932,329.366058 190.959595,338.356750 
	C190.888382,346.324310 192.223129,346.088989 182.564468,345.396576 
	C182.050446,332.972534 182.061996,321.053497 181.949493,309.135590 
	C181.933563,307.447601 181.313812,305.765289 180.973541,304.080353 
z"/>
<path fill="#333333" opacity="1.000000" stroke="none" 
	d="
M526.960205,295.106567 
	C529.378418,295.087402 531.796570,295.068207 534.626770,295.534210 
	C535.028320,310.730469 535.050049,325.441742 534.968445,340.152435 
	C534.957764,342.072876 534.416321,343.990356 534.120728,345.909210 
	C532.027405,345.916077 529.934021,345.922974 527.406982,345.434875 
	C526.968872,328.328766 526.964539,311.717682 526.960205,295.106567 
z"/>
<path fill="#3D3D3D" opacity="1.000000" stroke="none" 
	d="
M161.745270,207.849655 
	C160.313660,211.026245 159.143524,213.938416 157.812820,217.250183 
	C155.146866,210.241653 150.981903,204.831482 143.080887,202.700058 
	C151.998993,200.168320 156.291794,194.495453 156.216415,185.141663 
	C158.571091,192.369934 159.535538,200.336929 169.736191,201.036484 
	C166.750336,203.566238 164.378540,205.575729 161.745270,207.849655 
z"/>
<path fill="#424242" opacity="1.000000" stroke="none" 
	d="
M251.820038,208.255798 
	C251.581467,209.605270 251.497467,210.649307 251.413483,211.693329 
	C249.225723,206.505402 247.115509,201.710678 240.401108,200.423187 
	C246.626709,197.919464 249.494446,194.043228 248.990204,187.576538 
	C252.889572,191.369583 252.243713,198.835083 259.029999,198.816574 
	C256.526520,202.057541 254.250580,205.003937 251.820038,208.255798 
z"/>
<path fill="#B6D7DA" opacity="1.000000" stroke="none" 
	d="
M378.064697,279.355957 
	C400.669769,278.901886 423.420258,278.877625 446.634521,278.967163 
	C446.598328,279.399780 446.097870,279.998169 445.598419,279.997314 
	C423.135620,279.959808 400.672852,279.869690 378.064697,279.355957 
z"/>
<path fill="#9B9B9B" opacity="1.000000" stroke="none" 
	d="
M534.553101,345.958649 
	C534.416321,343.990356 534.957764,342.072876 534.968445,340.152435 
	C535.050049,325.441742 535.028320,310.730469 535.080200,295.558594 
	C535.412109,295.958984 535.952820,296.819275 535.955750,297.681396 
	C536.007507,312.984314 536.009155,328.287537 535.951355,343.590424 
	C535.948303,344.397522 535.321777,345.202271 534.553101,345.958649 
z"/>
<path fill="#424242" opacity="1.000000" stroke="none" 
	d="
M526.652710,295.382385 
	C526.964539,311.717682 526.968872,328.328766 526.960022,345.397003 
	C526.663025,345.283081 526.130310,344.711426 526.131653,344.141052 
	C526.169922,327.980011 526.262024,311.819153 526.652710,295.382385 
z"/>
<path fill="#B6D7DA" opacity="1.000000" stroke="none" 
	d="
M424.499023,295.264679 
	C424.924255,311.720703 424.961609,328.367249 424.952118,345.476440 
	C424.603668,345.122864 424.040009,344.306854 424.039215,343.490326 
	C424.024017,327.478638 424.074249,311.466919 424.499023,295.264679 
z"/>
<path fill="#B6D7DA" opacity="1.000000" stroke="none" 
	d="
M212.632660,295.277710 
	C213.061462,311.743011 213.058365,328.307678 213.102203,345.317535 
	C212.763245,345.235046 212.040115,344.707153 212.040436,344.179749 
	C212.050308,327.912201 212.131012,311.644653 212.632660,295.277710 
z"/>
<path fill="#545454" opacity="1.000000" stroke="none" 
	d="
M274.459534,126.983070 
	C272.481445,125.914856 270.777832,124.648216 268.955139,123.293030 
	C270.374664,121.328911 271.795624,119.362808 273.304443,117.275101 
	C277.610565,119.558044 278.214264,122.721237 274.459534,126.983070 
z"/>
<path fill="#3D3D3D" opacity="1.000000" stroke="none" 
	d="
M244.562653,149.215485 
	C245.884491,150.851517 247.585144,152.368179 247.541031,153.832291 
	C247.510223,154.855042 245.195206,156.133606 243.683502,156.611069 
	C243.154190,156.778259 241.421310,155.003616 241.212128,153.926544 
	C240.776917,151.685593 240.648315,149.099731 244.562653,149.215485 
z"/>
<path fill="#7FB5B5" opacity="1.000000" stroke="none" 
	d="
M180.984436,304.541138 
	C181.313812,305.765289 181.933563,307.447601 181.949493,309.135590 
	C182.061996,321.053497 182.050446,332.972534 182.128296,345.338531 
	C181.787323,344.425903 181.067398,343.068451 181.057205,341.705658 
	C180.965607,329.471619 180.998795,317.236664 180.984436,304.541138 
z"/>
<path fill="#545454" opacity="1.000000" stroke="none" 
	d="
M316.995026,223.779480 
	C317.211853,224.149200 317.185608,224.043930 317.198730,224.018066 
	C315.675720,225.648987 314.139557,227.305740 312.603394,228.962509 
	C313.185211,228.672867 313.767059,228.383224 314.348877,228.093582 
	C312.738251,226.182037 311.127594,224.270493 309.516968,222.358948 
	C308.833069,223.171738 308.149200,223.984528 307.465302,224.797302 
	C309.893402,223.513290 312.321533,222.229279 314.749634,220.945251 
	C313.895935,220.327652 313.042206,219.710052 312.188477,219.092453 
	C313.718384,220.531555 315.248291,221.970673 316.995026,223.779480 
z"/>
<path fill="#000000" opacity="1.000000" stroke="none" 
	d="
M394.311157,131.324158 
	C387.001343,125.899925 386.092133,127.339073 375.453339,133.555908 
	C370.950745,136.187027 367.113922,139.978241 363.080902,143.368790 
	C362.515442,143.844177 362.802887,145.576431 362.278992,145.815979 
	C360.280731,146.729660 357.726898,148.351883 356.073608,147.763184 
	C348.963196,145.231445 342.048065,144.673615 335.120575,147.888611 
	C333.290161,148.738113 331.537842,150.009995 330.126923,151.456009 
	C327.283234,154.370346 324.435669,156.992264 319.991272,156.903305 
	C316.820984,156.839859 315.748779,159.071045 316.863495,161.397491 
	C319.470398,166.838318 322.639648,172.009125 325.556274,177.303009 
	C325.871033,177.874374 326.022095,178.535950 326.242737,179.138306 
	C323.249908,181.287781 315.256561,180.103745 311.577240,176.861237 
	C310.225555,175.670013 308.906219,174.289398 308.039948,172.734543 
	C306.614655,170.176285 306.514069,168.103104 310.021759,166.564774 
	C311.973480,165.708832 313.809357,163.353882 314.549438,161.267303 
	C315.586487,158.343582 314.188477,156.042511 310.632629,155.964478 
	C308.301697,155.913315 305.942688,156.168472 303.652527,155.863617 
	C303.021301,155.779602 302.592072,154.178024 302.112244,152.967499 
	C308.217316,147.946014 314.277161,143.225754 320.343933,138.514435 
	C333.254364,128.488449 347.678772,121.618896 363.416901,117.215744 
	C373.950165,114.268784 388.019928,118.557770 393.257141,127.061913 
	C393.982849,128.240295 394.127136,129.776718 394.311157,131.324158 
M335.912140,144.130615 
	C341.511230,143.445358 347.110321,142.760117 353.328796,141.999054 
	C352.011749,138.520828 351.266541,135.647858 349.889404,133.118988 
	C347.580841,128.879669 340.796326,126.535934 338.735657,129.448746 
	C335.895630,133.463104 334.183868,138.280167 332.152802,142.826660 
	C332.115906,142.909256 334.125732,143.906174 335.912140,144.130615 
z"/>
<path fill="#7FB5B5" opacity="1.000000" stroke="none" 
	d="
M393.988434,141.816193 
	C393.632629,139.351974 393.437836,136.439240 393.516357,133.229630 
	C393.909607,135.744385 394.029510,138.556046 393.988434,141.816193 
z"/>
<path fill="#000000" opacity="1.000000" stroke="none" 
	d="
M346.763367,187.782227 
	C350.634155,186.023026 354.174042,184.407043 357.766479,182.917892 
	C365.029327,179.907257 366.619415,176.661682 365.421875,167.015305 
	C374.903870,170.079483 379.332581,184.809433 373.436401,192.500229 
	C371.194214,195.424850 368.238800,197.879379 365.327118,200.194275 
	C361.810059,202.990524 357.132538,204.736847 354.479309,208.128311 
	C348.103394,216.278381 343.321014,225.479126 345.296570,236.371979 
	C346.270569,241.742477 348.395264,246.904297 350.440857,253.607712 
	C346.082092,250.968735 341.830139,249.171585 338.567535,246.264236 
	C330.751953,239.299698 327.313049,229.721954 327.291229,219.735901 
	C327.264465,207.493118 332.737854,197.242523 343.137085,190.101639 
	C344.218536,189.359039 345.348663,188.687393 346.763367,187.782227 
z"/>
<path fill="#000000" opacity="1.000000" stroke="none" 
	d="
M245.644226,311.482941 
	C244.204361,317.896667 241.805878,319.883087 235.955490,319.968597 
	C235.123444,319.980743 234.291061,319.971008 233.458832,319.971588 
	C222.060913,319.979828 222.139374,319.985229 222.934784,308.452881 
	C223.111725,305.887573 224.009369,304.929840 226.526245,304.940704 
	C230.341568,304.957184 234.415909,303.863617 237.893921,304.889771 
	C240.787628,305.743530 242.981247,308.970154 245.644226,311.482941 
z"/>
<path fill="#000000" opacity="1.000000" stroke="none" 
	d="
M450.579285,304.827026 
	C453.148468,307.415588 456.880768,309.875366 457.179016,312.697998 
	C457.640259,317.062988 453.426331,319.112701 449.343597,320.117310 
	C448.703247,320.274811 448.087646,320.538788 447.444061,320.676056 
	C436.863403,322.932556 432.190613,317.960907 435.246948,307.449310 
	C435.557922,306.379883 437.512360,305.226868 438.796539,305.107605 
	C442.573914,304.756683 446.397827,304.906830 450.579285,304.827026 
z"/>
<path fill="#000000" opacity="1.000000" stroke="none" 
	d="
M281.550903,337.943542 
	C270.465759,332.631409 267.052521,325.441406 270.046906,314.532623 
	C271.652130,308.684753 275.989655,304.627502 281.293396,304.012939 
	C289.867706,303.019379 295.506805,305.700775 299.054413,311.352356 
	C306.619812,323.404449 298.590576,339.488556 281.550903,337.943542 
z"/>
<path fill="#000000" opacity="1.000000" stroke="none" 
	d="
M392.485962,303.021240 
	C403.096863,303.408844 413.030548,318.475769 406.136078,329.278442 
	C402.005585,335.750397 394.095184,339.413910 386.563171,337.505707 
	C380.692719,336.018433 376.290222,329.649719 375.991394,322.212311 
	C375.550110,311.229889 380.983643,304.759460 392.485962,303.021240 
z"/>
<path fill="#000000" opacity="1.000000" stroke="none" 
	d="
M88.289886,309.333862 
	C89.118004,309.085785 90.264824,308.863495 90.377525,309.111389 
	C92.673683,314.162048 94.763687,319.307098 97.090530,324.342834 
	C98.230820,326.810669 97.334137,327.858215 94.994392,327.919800 
	C90.544601,328.036926 86.089539,327.953735 80.612152,327.953735 
	C83.309669,321.357880 85.718369,315.468262 88.289886,309.333862 
z"/>
<path fill="#156466" opacity="1.000000" stroke="none" 
	d="
M335.546356,144.303543 
	C334.125732,143.906174 332.115906,142.909256 332.152802,142.826660 
	C334.183868,138.280167 335.895630,133.463104 338.735657,129.448746 
	C340.796326,126.535934 347.580841,128.879669 349.889404,133.118988 
	C351.266541,135.647858 352.011749,138.520828 353.328796,141.999054 
	C347.110321,142.760117 341.511230,143.445358 335.546356,144.303543 
z"/>
</svg>